<svg class="svg-icon" style="width: 1em; height: 1em;vertical-align: middle;fill: currentColor;overflow: hidden;" viewBox="0 0 1024 1024" version="1.1" xmlns="http://www.w3.org/2000/svg"><path d="M460.8 717.653333a34.133333 34.133333 0 0 1-24.132267-58.2656l146.5344-146.5344-146.5344-146.5344a34.133333 34.133333 0 1 1 48.264534-48.264533l170.666666 170.666667a34.133333 34.133333 0 0 1 0 48.264533l-170.666666 170.666667c-6.656 6.656-15.394133 10.001067-24.132267 10.001066z"  /><path d="M512 955.733333c-121.924267 0-227.345067-43.912533-313.326933-130.491733C112.162133 739.328 68.266667 634.2144 68.266667 512.853333c0-122.743467 43.8784-228.437333 130.440533-314.999466C284.706133 111.872 390.109867 68.266667 512 68.266667c121.873067 0 227.5328 43.588267 314.112 129.536C912.145067 284.450133 955.733333 390.126933 955.733333 512c0 121.9072-43.605333 227.293867-129.5872 313.258667C739.601067 911.837867 633.9072 955.733333 512 955.733333z m0-853.333333c-112.503467 0-209.783467 40.226133-289.160533 119.586133C142.933333 301.909333 102.4 399.496533 102.4 512c0 112.776533 40.516267 209.7664 120.405333 289.0752C302.216533 881.083733 399.496533 921.6 512 921.6c112.520533 0 210.107733-40.533333 290.013867-120.4736C881.373867 721.800533 921.6 624.520533 921.6 512c0-112.5376-40.2432-210.1248-119.637333-290.065067C722.1248 142.6432 624.520533 102.4 512 102.4z"  /></svg>