<?xml version="1.0" encoding="UTF-8" standalone="no"?>
<svg
   version="1.1"
   viewBox="0 0 16 16"
   id="svg2"
   sodipodi:docname="reset-symbolic.svg"
   inkscape:version="1.4 (1:1.4+202410161351+e7c3feb100)"
   xmlns:inkscape="http://www.inkscape.org/namespaces/inkscape"
   xmlns:sodipodi="http://sodipodi.sourceforge.net/DTD/sodipodi-0.dtd"
   xmlns="http://www.w3.org/2000/svg"
   xmlns:svg="http://www.w3.org/2000/svg">
  <defs
     id="defs2" />
  <sodipodi:namedview
     id="namedview2"
     pagecolor="#ffffff"
     bordercolor="#666666"
     borderopacity="1.0"
     inkscape:showpageshadow="2"
     inkscape:pageopacity="0.0"
     inkscape:pagecheckerboard="0"
     inkscape:deskcolor="#d1d1d1"
     inkscape:zoom="50.6875"
     inkscape:cx="8"
     inkscape:cy="8"
     inkscape:window-width="1920"
     inkscape:window-height="1020"
     inkscape:window-x="0"
     inkscape:window-y="0"
     inkscape:window-maximized="1"
     inkscape:current-layer="svg2" />
  <g
     transform="matrix(1,0,0,-1,-72.000001,335.7146)"
     fill="#808080"
     id="g2"
     style="fill:#727272;fill-opacity:1">
    <path
       d="m 73.307,322.09 3.3062,3.3041 c 0.27285,-0.73247 0.52745,-1.5013 0.76438,-2.3064 0.23135,-0.80088 0.4355,-1.5924 0.6118,-2.3746 -0.77612,0.18236 -1.5649,0.38932 -2.3657,0.62067 -0.80553,0.23708 -1.5776,0.48909 -2.3164,0.75607 z"
       color="#000000"
       id="path1"
       style="fill:#727272;fill-opacity:1" />
    <path
       d="m 73,327.9 c -0.01105,0.73458 0.0947,1.4791 0.32422,2.207 0.91808,2.9118 3.6227,4.8945 6.6758,4.8945 3.0531,0 5.7577,-1.9828 6.6758,-4.8945 0.9181,-2.9117 -0.15923,-6.0887 -2.6602,-7.8398 l -0.41016,-0.2871 -0.57422,0.82031 0.41016,0.28711 c 2.1468,1.5032 3.0693,4.2193 2.2812,6.7188 -0.78806,2.4994 -3.1019,4.1953 -5.7227,4.1953 -2.6208,0 -4.9346,-1.6959 -5.7227,-4.1953 -0.78806,-2.4994 0.13449,-5.2156 2.2812,-6.7188 l 0.41016,-0.28711 -0.57422,-0.82031 -0.41016,0.2871 c -1.8757,1.3134 -2.9512,3.4291 -2.9844,5.6328 z"
       color="#000000"
       color-rendering="auto"
       dominant-baseline="auto"
       image-rendering="auto"
       shape-rendering="auto"
       solid-color="#000000"
       style="font-variant-ligatures:normal;font-variant-position:normal;font-variant-caps:normal;font-variant-numeric:normal;font-variant-alternates:normal;font-feature-settings:normal;text-indent:0;text-decoration-line:none;text-decoration-style:solid;text-decoration-color:#000000;text-transform:none;text-orientation:mixed;white-space:normal;shape-padding:0;isolation:auto;mix-blend-mode:normal;fill:#727272;fill-opacity:1"
       id="path2" />
  </g>
</svg>
