<?xml version="1.0" encoding="UTF-8" standalone="no"?>
<!-- Created with Inkscape (http://www.inkscape.org/) -->

<svg
   width="100mm"
   height="100mm"
   viewBox="0 0 100 100"
   version="1.1"
   id="svg65006"
   inkscape:version="1.1.2 (0a00cf5339, 2022-02-04)"
   sodipodi:docname="temperature.svg"
   xmlns:inkscape="http://www.inkscape.org/namespaces/inkscape"
   xmlns:sodipodi="http://sodipodi.sourceforge.net/DTD/sodipodi-0.dtd"
   xmlns="http://www.w3.org/2000/svg"
   xmlns:svg="http://www.w3.org/2000/svg">
  <sodipodi:namedview
     id="namedview65008"
     pagecolor="#ffffff"
     bordercolor="#666666"
     borderopacity="1.0"
     inkscape:pageshadow="2"
     inkscape:pageopacity="0.0"
     inkscape:pagecheckerboard="0"
     inkscape:document-units="mm"
     showgrid="false"
     inkscape:zoom="1.3932941"
     inkscape:cx="205.26894"
     inkscape:cy="117.34781"
     inkscape:window-width="1846"
     inkscape:window-height="1016"
     inkscape:window-x="0"
     inkscape:window-y="0"
     inkscape:window-maximized="1"
     inkscape:current-layer="layer1"
     units="px"
     width="100px" />
  <defs
     id="defs65003" />
  <g
     inkscape:label="Warstwa 1"
     inkscape:groupmode="layer"
     id="layer1">
    <path
       class="st0"
       d="M 37.001406,38.762383 H 53.179791 V 12.232517 c 0,-2.22192 -0.911528,-4.2482117 -2.376374,-5.7130442 -1.464829,-1.4657051 -3.491205,-2.3766604 -5.712883,-2.3766604 -2.221637,0 -4.248084,0.9109553 -5.712909,2.3766604 C 37.9128,7.9851795 37.001244,10.010597 37.001244,12.232517 Z M 63.165151,11.337327 c -1.147464,0 -2.075068,-0.928475 -2.075068,-2.0759316 0,-1.1474563 0.927604,-2.0759283 2.075068,-2.0759283 h 11.507184 c 1.147449,0 2.075052,0.928472 2.075052,2.0759283 0,1.1474566 -0.927603,2.0759316 -2.075052,2.0759316 z m 0,11.69412 c -1.147464,0 -2.075068,-0.928476 -2.075068,-2.075926 0,-1.147462 0.927604,-2.075939 2.075068,-2.075939 h 11.507184 c 1.147449,0 2.075052,0.928477 2.075052,2.075939 0,1.14745 -0.927603,2.075926 -2.075052,2.075926 z m 0,11.694405 c -1.147464,0 -2.075068,-0.928464 -2.075068,-2.075925 0,-1.147461 0.927604,-2.075926 2.075068,-2.075926 h 11.507184 c 1.147449,0 2.075052,0.928465 2.075052,2.075926 0,1.147461 -0.927603,2.075925 -2.075052,2.075925 z m 0,11.694417 c -1.147464,0 -2.075068,-0.928476 -2.075068,-2.075937 0,-1.14745 0.927604,-2.075926 2.075068,-2.075926 h 11.507184 c 1.147449,0 2.075052,0.928476 2.075052,2.075926 0,1.147461 -0.927603,2.075937 -2.075052,2.075937 z m 0,11.694406 c -1.147464,0 -2.075068,-0.928479 -2.075068,-2.075927 0,-1.147461 0.927604,-2.075927 2.075068,-2.075927 h 11.507184 c 1.147449,0 2.075052,0.928466 2.075052,2.075927 0,1.147448 -0.927603,2.075927 -2.075052,2.075927 z m -5.843116,2.47302 c 5.590841,3.914199 9.244799,10.408563 9.244799,17.749055 C 66.566834,90.29949 56.866337,100 44.903411,100 32.940541,100 23.24,90.29949 23.24,78.33675 c 0,-7.503416 3.816723,-14.119531 9.619139,-18.001327 v -48.10378 c 0,-3.3693729 1.375499,-6.4210813 3.588864,-8.6427063 C 38.661437,1.3757795 41.721443,0 45.090603,0 c 3.36911,0 6.420919,1.375192 8.642596,3.5889367 2.213461,2.2131589 3.588836,5.2733334 3.588836,8.6427063 z"
       id="path21221"
       style="clip-rule:evenodd;fill:#004473;fill-opacity:0.619608;fill-rule:evenodd;stroke-width:0.813805" />
  </g>
</svg>
