<?xml version="1.0" standalone="no"?>
<!DOCTYPE svg PUBLIC "-//W3C//DTD SVG 20010904//EN"
 "http://www.w3.org/TR/2001/REC-SVG-20010904/DTD/svg10.dtd">
<svg version="1.0" xmlns="http://www.w3.org/2000/svg"
 width="920.000000pt" height="800.000000pt" viewBox="0 0 920.000000 800.000000"
 preserveAspectRatio="xMidYMid meet">

<g transform="translate(0.000000,800.000000) scale(0.100000,-0.100000)"
fill="#000000" stroke="none">
<path d="M2852 7935 c42 -124 47 -404 13 -615 -17 -100 -34 -170 -45 -183 -4
-5 -39 32 -78 81 -85 106 -249 265 -352 343 -151 112 -349 218 -451 240 -65
14 -134 7 -159 -16 -29 -26 -26 -77 7 -116 16 -18 165 -143 333 -277 168 -135
296 -242 285 -238 -298 110 -704 126 -979 39 -98 -31 -172 -66 -208 -101 -58
-54 -35 -67 136 -76 206 -10 348 -34 694 -117 53 -13 70 -29 30 -29 -44 0
-225 -54 -303 -90 -149 -69 -240 -152 -357 -327 -78 -116 -158 -289 -158 -340
0 -7 61 36 136 95 136 110 262 185 370 222 31 11 59 20 62 20 2 0 -23 -29 -56
-64 -75 -81 -114 -137 -155 -224 -28 -59 -31 -77 -31 -152 0 -72 5 -97 33
-165 85 -211 270 -483 410 -602 27 -24 52 -43 55 -43 3 0 6 57 7 128 0 70 6
164 12 210 l12 83 64 -75 c112 -133 214 -212 394 -306 114 -60 117 -61 107
-34 -6 15 -33 57 -59 93 -79 109 -112 161 -102 161 5 0 46 -16 90 -35 116 -49
194 -71 303 -86 l96 -12 25 -181 c14 -100 23 -183 22 -185 -2 -2 -38 22 -80
53 -91 66 -134 77 -184 50 -55 -31 -73 -75 -68 -169 5 -85 26 -148 81 -240 31
-53 137 -192 180 -237 14 -15 26 -30 26 -33 0 -3 -34 -5 -75 -5 -178 0 -487
-55 -613 -109 -160 -68 -335 -208 -458 -367 -135 -175 -159 -203 -232 -278
-55 -55 -123 -109 -235 -182 -87 -57 -160 -111 -164 -119 -3 -9 11 -59 32
-113 159 -413 309 -927 435 -1487 27 -119 31 -152 26 -223 -5 -63 -3 -90 9
-112 16 -31 42 -44 69 -34 13 5 16 0 16 -24 0 -16 7 -46 15 -66 13 -32 20 -36
50 -36 29 0 36 4 41 25 3 14 9 25 12 25 3 0 22 -15 42 -34 33 -33 49 -40 78
-37 16 1 16 69 -2 102 l-13 26 77 7 c157 13 269 59 477 195 293 192 555 459
828 843 49 70 90 126 92 125 1 -2 -2 -117 -7 -257 -9 -248 -22 -363 -55 -478
-9 -30 -14 -56 -12 -59 7 -6 43 -10 175 -18 61 -4 112 -11 112 -16 0 -31 -258
-289 -383 -383 -85 -63 -256 -168 -355 -218 -95 -48 -108 -82 -72 -189 43
-128 127 -229 254 -307 l60 -37 -55 -6 c-63 -7 -122 -24 -164 -49 -16 -9 -70
-25 -119 -35 -107 -22 -130 -39 -129 -90 1 -51 33 -80 119 -112 105 -39 250
-43 364 -10 84 25 84 25 98 5 26 -37 56 -40 241 -23 296 27 451 75 451 140 0
31 -23 48 -240 180 -216 131 -273 172 -296 217 -15 29 -15 30 19 61 58 55 284
120 636 181 80 14 146 24 148 23 1 -2 -4 -27 -12 -57 -31 -115 -11 -201 62
-271 65 -62 92 -79 230 -149 65 -32 109 -59 98 -60 -53 -2 -272 -122 -318
-174 -62 -72 -61 -120 3 -156 40 -22 56 -24 140 -24 52 1 199 13 325 27 127
15 302 33 390 42 88 9 169 17 179 18 15 2 24 -13 45 -73 15 -41 30 -80 34 -87
4 -6 33 -22 65 -35 53 -21 71 -23 257 -22 488 2 811 116 781 277 -23 121 -343
266 -534 242 -67 -8 -150 -38 -186 -66 -23 -18 -31 -19 -58 -10 -17 6 -55 11
-84 11 -30 0 -54 3 -54 6 0 3 -18 76 -41 162 -62 239 -80 314 -77 317 2 2 35
-5 73 -16 100 -29 233 -28 355 1 102 24 193 65 224 99 17 18 30 21 105 21 114
0 211 15 272 41 58 25 116 88 125 135 9 50 -22 137 -68 189 l-39 44 33 5 c18
3 60 8 94 11 182 17 342 83 428 175 127 138 179 399 141 720 -9 80 -19 244
-22 365 -6 252 6 353 58 501 53 151 84 183 148 151 16 -8 99 -71 184 -141 161
-130 211 -157 270 -142 42 10 67 60 67 132 0 215 -198 419 -455 470 -222 43
-428 -56 -530 -256 -33 -64 -65 -203 -71 -305 -4 -73 3 -199 26 -460 33 -375
36 -537 9 -683 -10 -58 -14 -65 -56 -93 -64 -44 -197 -104 -273 -122 -248 -60
-445 -35 -644 81 l-59 35 64 33 c52 26 112 41 304 79 296 57 363 78 381 120
34 83 45 438 19 675 -78 733 -443 1604 -928 2213 -94 118 -295 327 -384 400
l-63 51 24 25 c34 36 73 118 87 181 7 33 10 106 7 189 -5 118 -9 147 -35 219
-17 45 -28 82 -25 82 2 0 46 -20 96 -44 80 -38 146 -82 361 -239 33 -25 64
-39 86 -40 30 -2 36 3 51 33 37 74 12 242 -58 390 -113 239 -308 448 -528 566
l-59 32 104 9 104 8 -39 37 c-91 87 -392 198 -711 264 -109 22 -171 28 -390
35 -143 5 -289 7 -325 4 -72 -7 -373 -41 -433 -50 -22 -3 -36 -2 -33 4 5 7
233 171 375 268 l36 25 -65 -7 c-85 -10 -316 -67 -403 -99 -150 -57 -273 -132
-373 -228 l-61 -58 -6 122 c-6 137 -34 290 -73 400 -61 169 -181 388 -213 388
-4 0 0 -25 11 -55z m126 -326 c28 -80 60 -189 71 -243 25 -115 51 -325 51
-413 0 -35 3 -63 8 -63 4 0 18 21 31 46 57 107 210 239 391 336 75 41 281 130
287 125 2 -2 -15 -16 -37 -31 -104 -69 -396 -309 -381 -314 4 -1 33 7 66 18
72 25 287 66 415 79 533 56 1032 -10 1500 -197 l25 -10 -29 -7 c-16 -5 -129
-6 -250 -2 -208 5 -217 4 -161 -9 320 -78 548 -201 699 -379 180 -213 271
-405 264 -560 l-3 -65 -78 55 c-175 124 -420 239 -497 233 l-38 -3 24 -75 c66
-200 71 -447 12 -563 -26 -53 -47 -45 -84 31 -17 35 -34 64 -37 65 -3 1 -23
-23 -44 -53 -48 -69 -68 -72 -68 -10 l0 45 -80 43 c-236 129 -634 263 -860
291 -44 5 -81 8 -82 7 -2 -2 28 -39 67 -84 38 -44 70 -83 70 -87 0 -3 -18 4
-39 15 -107 54 -309 110 -493 135 -45 6 -47 7 -38 31 18 46 12 75 -24 108 -90
82 -89 81 -168 78 -234 -10 -586 -96 -724 -177 -45 -27 -94 -87 -94 -116 0
-23 51 -64 96 -79 22 -8 66 -11 109 -8 l73 5 21 -101 c26 -124 55 -335 47
-343 -15 -16 -242 79 -428 178 -112 60 -207 109 -211 109 -10 0 90 -192 135
-259 l31 -46 -59 55 c-32 31 -121 116 -197 188 -76 73 -142 130 -146 128 -13
-9 -50 -146 -69 -258 l-18 -107 -128 185 c-201 290 -254 407 -244 538 9 109
64 199 228 370 l75 79 -65 -7 c-134 -15 -294 -87 -439 -199 -98 -76 -99 -77
-71 -37 164 238 338 404 510 490 24 13 114 42 199 66 85 24 156 45 158 47 6 6
-174 73 -284 106 -166 49 -347 82 -493 90 l-135 7 99 32 c129 43 260 62 421
62 205 0 471 -48 610 -109 73 -32 81 -28 43 27 -59 87 -111 134 -379 347 -190
152 -269 221 -279 244 -7 17 -11 34 -8 36 2 3 36 5 74 6 62 2 77 -2 144 -36
92 -46 138 -77 258 -173 149 -120 347 -325 484 -502 l26 -35 21 46 c11 26 33
104 47 175 22 104 27 159 28 284 0 85 -3 182 -7 214 -4 33 -6 58 -3 55 2 -2
26 -69 54 -150z m592 -1511 c59 -30 64 -61 19 -113 -18 -20 -44 -42 -58 -49
-27 -14 -189 -36 -263 -36 -50 0 -122 30 -160 67 -20 19 -28 22 -28 12 0 -20
-68 -74 -123 -99 -62 -28 -209 -28 -237 0 -11 11 -20 25 -20 31 0 21 55 66
104 84 45 17 49 17 58 2 15 -28 112 -23 167 8 34 20 57 25 113 25 65 0 71 2
101 33 27 27 43 34 107 43 122 19 171 17 220 -8z m714 -179 c118 -35 258 -95
522 -224 222 -109 254 -128 272 -159 17 -28 28 -36 50 -36 97 0 493 -411 729
-757 111 -163 170 -264 271 -471 294 -596 453 -1204 477 -1822 6 -172 -3 -289
-25 -300 -72 -37 -1139 -254 -1157 -236 -13 13 -16 482 -3 600 16 160 58 336
116 493 l34 91 -85 137 c-47 75 -85 140 -85 146 0 17 21 9 73 -29 79 -58 78
-58 70 -20 -3 18 -23 92 -44 163 -79 273 -134 533 -168 795 -32 239 -37 320
-20 320 31 1 380 58 385 63 24 24 -248 360 -442 547 -286 275 -468 417 -664
515 -90 45 -177 57 -228 31 -17 -9 -33 -16 -36 -16 -3 0 -34 43 -70 95 -35 52
-60 95 -54 95 6 0 43 -9 82 -21z m-1179 -8 c3 -5 31 -19 63 -31 101 -38 259
-28 383 24 13 6 18 -2 23 -36 210 -1291 232 -1462 243 -1918 7 -285 7 -281
-73 -475 -163 -397 -359 -677 -574 -822 -162 -109 -367 -202 -530 -241 -128
-31 -342 -46 -437 -32 -86 13 -189 48 -233 80 -178 127 -14 399 409 683 255
170 394 293 509 450 75 103 153 240 198 349 20 48 42 88 48 88 27 0 264 -66
402 -111 83 -27 153 -49 157 -49 4 0 14 25 22 55 36 124 -36 282 -151 330 -18
7 -124 35 -236 61 -199 46 -204 47 -246 88 -112 106 -257 306 -286 394 -40
120 -26 232 29 232 48 0 162 -69 249 -149 l48 -46 -7 97 c-7 91 -6 97 15 118
19 19 30 22 72 17 135 -16 302 -161 404 -352 45 -83 62 -87 39 -8 -37 124
-226 324 -367 388 -67 30 -138 41 -168 25 -12 -6 -23 -10 -25 -8 -3 2 -9 67
-15 143 -14 182 -36 344 -64 476 l-23 106 51 41 c55 44 62 47 71 33z m690 -54
c33 -14 114 -55 179 -91 66 -36 124 -66 129 -66 6 0 7 20 4 50 -3 28 -5 50 -3
50 30 0 196 -75 196 -89 0 -5 -11 -33 -24 -62 -46 -101 -58 -320 -36 -704 12
-231 12 -244 0 -225 -18 27 -79 223 -104 330 -30 133 -36 187 -37 333 -1 65
-3 116 -6 113 -3 -3 -12 -38 -19 -78 -26 -147 -14 -327 35 -503 11 -38 18 -71
17 -73 -2 -1 -36 47 -76 108 -40 61 -75 108 -77 106 -3 -2 10 -39 27 -82 41
-104 125 -228 201 -298 l61 -56 13 -91 c8 -50 16 -93 18 -95 2 -3 66 9 141 25
75 16 136 25 136 20 0 -37 57 -379 90 -539 51 -249 129 -644 275 -1385 64
-324 120 -614 126 -643 6 -30 9 -55 7 -57 -1 -1 -122 -15 -268 -29 -225 -22
-1225 -71 -1238 -60 -2 1 3 44 12 96 58 337 45 676 -35 925 l-20 62 67 103
c122 188 240 461 275 637 35 180 35 329 0 751 -49 576 -97 974 -170 1387 -17
95 -31 175 -31 177 0 6 55 -13 135 -47z m740 -146 c273 -142 704 -531 981
-887 l84 -109 -27 -8 c-16 -4 -210 -37 -433 -72 -437 -70 -491 -81 -678 -127
-67 -17 -124 -29 -126 -27 -7 8 -36 626 -36 754 0 159 16 342 35 411 33 115
76 129 200 65z m695 -126 c0 -8 -4 -15 -10 -15 -5 0 -10 7 -10 15 0 8 5 15 10
15 6 0 10 -7 10 -15z m-130 -1162 l145 -48 12 -80 c43 -264 128 -633 182 -789
12 -33 21 -60 21 -62 0 -2 -16 4 -36 12 -53 22 -88 15 -92 -18 -4 -34 48 -126
124 -220 l54 -67 -29 -63 c-42 -93 -87 -256 -113 -403 -21 -119 -23 -161 -23
-490 0 -229 5 -400 13 -470 48 -412 76 -580 134 -810 23 -88 41 -173 41 -189
0 -41 -37 -70 -78 -61 -16 3 -37 7 -46 8 -9 1 -16 6 -16 12 -1 10 -107 536
-247 1218 -36 174 -97 485 -136 690 -39 204 -100 516 -135 692 -95 471 -235
1167 -241 1190 -5 20 -3 20 158 8 150 -12 175 -17 308 -60z m-2540 -137 c0 -2
-7 -7 -16 -10 -8 -3 -12 -2 -9 4 6 10 25 14 25 6z m543 -13 c-7 -2 -19 -2 -25
0 -7 3 -2 5 12 5 14 0 19 -2 13 -5z m-616 -9 c-3 -3 -12 -4 -19 -1 -8 3 -5 6
6 6 11 1 17 -2 13 -5z m690 0 c-3 -3 -12 -4 -19 -1 -8 3 -5 6 6 6 11 1 17 -2
13 -5z m-828 -38 c-2 -2 -15 -9 -29 -15 -24 -11 -24 -11 -6 3 16 13 49 24 35
12z m1066 -15 c3 -5 2 -12 -3 -15 -5 -3 -9 1 -9 9 0 17 3 19 12 6z m142 -33
c-3 -8 -6 -5 -6 6 -1 11 2 17 5 13 3 -3 4 -12 1 -19z m-977 -38 c0 -5 -12 -10
-27 -9 l-28 1 25 8 c14 4 26 8 28 9 1 1 2 -3 2 -9z m188 3 c-21 -2 -57 -2 -80
0 -24 2 -7 4 37 4 44 0 63 -2 43 -4z m143 -11 c-13 -2 -27 0 -32 5 -6 6 3 7
23 4 28 -4 29 -6 9 -9z m642 -2 c-3 -12 -8 -19 -11 -16 -5 6 5 36 12 36 2 0 2
-9 -1 -20z m-1038 0 c-3 -5 -16 -10 -28 -9 -20 1 -20 2 3 9 14 4 26 8 28 9 2
1 0 -3 -3 -9z m1133 -26 c-3 -14 -5 -12 -10 9 -3 19 -2 25 4 19 6 -6 8 -18 6
-28z m-1193 16 c-3 -5 -12 -10 -18 -10 -7 0 -6 4 3 10 19 12 23 12 15 0z m538
3 c-7 -2 -19 -2 -25 0 -7 3 -2 5 12 5 14 0 19 -2 13 -5z m53 -5 c3 -4 -1 -5
-10 -4 -8 1 -18 5 -22 8 -3 4 1 5 10 4 8 -1 18 -5 22 -8z m321 -40 c-3 -8 -6
-5 -6 6 -1 11 2 17 5 13 3 -3 4 -12 1 -19z m-127 -2 c-7 -7 -13 -7 -20 0 -6 6
-3 10 10 10 13 0 16 -4 10 -10z m-970 -6 c0 -5 -5 -10 -11 -10 -5 0 -7 5 -4
10 3 6 8 10 11 10 2 0 4 -4 4 -10z m695 -5 c48 -9 94 -19 101 -23 11 -6 3 -30
-36 -107 -74 -147 -169 -274 -310 -415 -105 -105 -166 -154 -385 -309 -309
-219 -449 -348 -505 -467 -78 -163 -21 -328 141 -407 131 -64 343 -90 549 -67
61 6 114 9 118 5 9 -9 -160 -171 -253 -241 -103 -78 -227 -164 -287 -198 l-47
-27 -50 75 c-181 267 -352 657 -426 970 -31 128 -55 296 -55 376 0 54 2 61 17
56 9 -4 67 -9 128 -12 151 -7 172 7 211 144 2 6 16 12 31 12 24 0 28 -4 29
-30 3 -73 70 -115 173 -108 79 6 130 30 225 105 75 61 146 160 146 204 0 17
10 38 25 53 30 30 31 47 6 101 -24 53 -151 172 -223 210 -32 17 -58 33 -58 36
0 12 177 54 290 68 113 15 350 12 445 -4z m515 11 c0 -2 -7 -9 -15 -16 -13
-11 -14 -10 -9 4 5 14 24 23 24 12z m-1320 -50 c-8 -8 -26 -17 -40 -20 -19 -5
-16 -2 10 13 43 23 48 25 30 7z m-164 -74 c-3 -5 -15 -12 -26 -15 -11 -3 -18
-1 -14 4 3 5 12 9 20 9 8 0 14 5 14 12 0 6 3 9 6 5 3 -3 3 -10 0 -15z m64 -16
c0 -2 -7 -7 -16 -10 -8 -3 -12 -2 -9 4 6 10 25 14 25 6z m177 -2 c-3 -3 -12
-4 -19 -1 -8 3 -5 6 6 6 11 1 17 -2 13 -5z m-340 -140 c-3 -3 -12 -4 -19 -1
-8 3 -5 6 6 6 11 1 17 -2 13 -5z m263 -14 c0 -5 -2 -10 -4 -10 -3 0 -8 5 -11
10 -3 6 -1 10 4 10 6 0 11 -4 11 -10z m280 -15 c19 -22 8 -25 -12 -3 -10 10
-14 18 -9 18 5 0 14 -7 21 -15z m-580 2 c0 -2 -10 -12 -22 -23 l-23 -19 19 23
c18 21 26 27 26 19z m240 -33 c0 -2 -9 0 -20 6 -11 6 -20 13 -20 16 0 2 9 0
20 -6 11 -6 20 -13 20 -16z m337 -40 c-3 -3 -12 -4 -19 -1 -8 3 -5 6 6 6 11 1
17 -2 13 -5z m-250 -36 c-3 -8 -6 -5 -6 6 -1 11 2 17 5 13 3 -3 4 -12 1 -19z
m128 12 c-3 -5 -14 -10 -23 -9 -14 0 -13 2 3 9 27 11 27 11 20 0z m-535 -4 c0
-2 -8 -10 -17 -17 -16 -13 -17 -12 -4 4 13 16 21 21 21 13z m5774 -31 c154
-40 304 -153 364 -275 35 -70 40 -116 17 -160 -12 -24 -22 -30 -48 -30 -38 0
-72 21 -235 147 -139 107 -193 138 -244 138 -44 0 -74 -26 -111 -93 -83 -153
-103 -505 -58 -1019 7 -71 7 -153 1 -228 -22 -268 -75 -370 -250 -483 -107
-69 -147 -79 -337 -87 l-173 -7 -132 60 c-152 69 -296 122 -452 167 l-108 31
50 33 51 33 47 -36 c100 -76 327 -139 509 -139 135 -1 239 24 372 88 l93 44
-15 -34 c-17 -43 -5 -45 29 -4 48 57 76 116 103 215 27 98 27 102 25 380 -2
155 -5 291 -7 304 -2 12 -7 130 -11 263 -6 207 -4 254 10 327 42 206 138 313
327 364 71 19 112 19 183 1z m-5394 -20 c-7 -9 -15 -13 -17 -11 -6 6 20 36 26
30 2 -2 -2 -10 -9 -19z m271 -18 c-10 -9 -11 -8 -5 6 3 10 9 15 12 12 3 -3 0
-11 -7 -18z m-171 -7 c-33 -26 -52 -25 -21 0 13 11 28 20 35 20 6 0 0 -9 -14
-20z m-500 -25 c-13 -14 -25 -23 -28 -21 -5 6 41 55 47 50 3 -2 -6 -15 -19
-29z m-90 -9 c0 -2 -8 -10 -17 -17 -16 -13 -17 -12 -4 4 13 16 21 21 21 13z
m124 -21 c-9 -14 -18 -25 -21 -25 -5 0 5 18 20 38 17 22 18 13 1 -13z m276 21
c0 -3 -4 -8 -10 -11 -5 -3 -10 -1 -10 4 0 6 5 11 10 11 6 0 10 -2 10 -4z m-40
-10 c0 -2 -8 -10 -17 -17 -16 -13 -17 -12 -4 4 13 16 21 21 21 13z m351 -29
c-10 -9 -11 -8 -5 6 3 10 9 15 12 12 3 -3 0 -11 -7 -18z m-425 -12 c-11 -8
-25 -15 -30 -15 -6 1 0 7 14 15 32 19 40 18 16 0z m-239 -17 c-3 -8 -6 -5 -6
6 -1 11 2 17 5 13 3 -3 4 -12 1 -19z m64 -5 c13 -16 12 -17 -3 -4 -10 7 -18
15 -18 17 0 8 8 3 21 -13z m353 1 c17 -7 21 -29 7 -38 -5 -3 -8 2 -7 11 0 10
-9 20 -24 24 -14 4 -18 7 -8 8 9 1 23 -2 32 -5z m-36 -51 c-10 -2 -28 -2 -40
0 -13 2 -5 4 17 4 22 1 32 -1 23 -4z m-288 -28 c0 -8 -2 -15 -4 -15 -2 0 -6 7
-10 15 -3 8 -1 15 4 15 6 0 10 -7 10 -15z m440 10 c0 -7 -63 -45 -75 -45 -5 0
8 11 30 24 47 28 45 27 45 21z m-851 -49 c-2 -2 -15 -9 -29 -15 -24 -11 -24
-11 -6 3 16 13 49 24 35 12z m368 -31 c-23 -21 -38 -25 -80 -23 l-52 2 50 3
c27 3 60 13 75 23 36 27 40 24 7 -5z m-262 -5 c-3 -5 -16 -10 -28 -9 -20 1
-20 2 3 9 14 4 26 8 28 9 2 1 0 -3 -3 -9z m120 0 c-3 -5 -25 -9 -48 -8 l-42 1
45 7 c25 4 46 8 48 8 2 1 0 -2 -3 -8z m-168 -117 c-2 -16 -4 -3 -4 27 0 30 2
43 4 28 2 -16 2 -40 0 -55z m-111 -49 c19 -54 43 -119 51 -143 9 -26 18 -38
23 -31 4 6 19 13 33 14 15 2 24 0 22 -5 -3 -4 -1 -10 4 -13 4 -3 11 -29 15
-58 16 -117 84 -351 161 -553 44 -115 120 -260 192 -369 68 -101 258 -306 284
-306 7 0 -2 15 -20 34 l-32 33 58 33 c181 101 396 264 563 425 97 94 115 107
231 162 195 95 407 247 510 366 32 38 33 38 41 16 5 -12 11 -54 15 -94 l6 -71
-106 -140 c-137 -182 -238 -298 -405 -468 -278 -281 -459 -424 -674 -530 -107
-53 -293 -105 -311 -87 -24 24 -25 8 -2 -41 36 -76 31 -112 -9 -73 -12 13 -82
98 -93 114 -9 13 -10 -10 -2 -51 13 -74 -5 -101 -36 -54 -9 14 -19 60 -23 108
l-8 83 -17 -32 c-35 -65 -75 -32 -63 51 13 87 -50 457 -134 781 -27 105 -110
372 -185 595 -74 223 -135 407 -135 409 0 15 14 -17 46 -105z m121 -81 c-3
-10 -5 -2 -5 17 0 19 2 27 5 18 2 -10 2 -26 0 -35z m10 -55 c-3 -8 -6 -5 -6 6
-1 11 2 17 5 13 3 -3 4 -12 1 -19z m4216 -1171 c-97 -87 -239 -207 -244 -207
-7 0 -19 103 -19 165 l0 41 148 20 c81 11 149 19 150 18 2 -2 -13 -18 -35 -37z
m-579 -199 c19 -84 42 -181 50 -215 l14 -62 -92 -102 c-147 -165 -168 -191
-194 -248 -69 -150 34 -379 250 -556 43 -35 121 -91 173 -125 52 -35 95 -66
95 -71 0 -13 -20 -15 -340 -43 -331 -30 -387 -33 -398 -22 -11 12 53 61 137
106 87 45 82 51 -14 16 -77 -28 -137 -67 -172 -113 -24 -31 -29 -33 -84 -33
-33 0 -59 3 -59 8 0 38 88 118 168 153 23 10 42 20 42 23 0 9 -110 -22 -141
-40 -19 -11 -52 -48 -74 -82 -22 -34 -42 -61 -45 -62 -3 0 -18 10 -34 23 l-29
23 33 37 c47 53 168 131 247 158 54 19 89 24 173 24 l106 0 -137 56 c-240 99
-344 171 -395 275 -53 109 -18 212 155 454 122 171 119 165 91 150 -27 -14
-248 -232 -282 -278 l-25 -33 -138 -10 c-302 -21 -680 -123 -769 -207 -39 -37
-49 -68 -36 -108 20 -60 104 -123 333 -247 120 -66 227 -127 240 -137 l22 -18
-25 -10 c-38 -14 -536 -76 -555 -68 -13 4 -14 10 -5 26 17 31 66 58 121 65 63
9 63 25 2 25 -53 0 -112 -24 -158 -62 -22 -18 -55 -29 -126 -41 -103 -18 -205
-22 -213 -8 -16 25 94 84 197 106 55 11 59 13 34 20 -40 11 -150 -13 -195 -42
-21 -14 -48 -40 -61 -59 -29 -42 -55 -41 -59 2 -2 25 4 37 38 68 22 20 54 39
70 43 32 6 41 23 13 23 -68 0 -128 -44 -153 -110 -7 -19 -15 -36 -16 -38 -8
-12 -65 33 -70 55 -14 53 13 67 238 119 103 23 130 26 230 21 62 -3 127 -9
143 -12 19 -4 6 6 -36 28 -235 120 -397 287 -416 425 -5 34 -1 41 26 64 17 15
70 47 118 73 162 85 363 244 483 382 25 28 61 58 81 67 47 19 276 87 404 120
274 69 822 169 961 175 20 1 25 -13 58 -151z m957 -74 c270 -91 479 -223 479
-301 0 -25 -25 -63 -40 -63 -4 0 -10 17 -14 38 -3 21 -16 48 -30 61 -13 12
-135 83 -272 157 -227 123 -279 154 -262 154 3 0 66 -20 139 -46z m-889 -508
c37 -20 69 -45 72 -54 13 -43 135 -646 131 -650 -2 -2 -65 44 -140 103 -148
117 -206 185 -252 297 -45 112 -27 231 53 336 24 30 28 32 47 19 12 -7 52 -30
89 -51z m417 -551 c0 -5 -4 -3 -9 5 -5 8 -9 22 -9 30 0 16 17 -16 18 -35z
m-151 -80 c0 -16 -2 -15 -8 5 -11 34 -11 60 0 35 5 -11 8 -29 8 -40z m9 -47
c-3 -8 -6 -5 -6 6 -1 11 2 17 5 13 3 -3 4 -12 1 -19z m193 -113 c0 -5 -5 -3
-10 5 -5 8 -10 20 -10 25 0 6 5 3 10 -5 5 -8 10 -19 10 -25z m-156 -65 c4 -30
3 -36 -3 -20 -13 41 -22 97 -12 80 5 -8 11 -35 15 -60z m24 -110 c0 -9 -3 -7
-8 5 -5 11 -8 29 -8 40 0 16 2 15 8 -5 4 -14 8 -32 8 -40z m253 43 c13 -17 13
-17 -6 -3 -11 8 -22 16 -24 17 -2 2 0 3 6 3 6 0 17 -8 24 -17z m-210 -71 c-7
-2 -18 1 -23 6 -8 8 -4 9 13 5 13 -4 18 -8 10 -11z m379 2 c0 -2 -21 -4 -47
-3 -37 1 -42 3 -23 8 24 7 70 3 70 -5z m-186 -3 c3 -4 -36 -8 -87 -8 l-92 0
85 7 c47 3 86 7 87 8 1 1 4 -2 7 -7z"/>
<path d="M3168 5194 c-27 -8 -48 -18 -48 -22 0 -4 44 -7 98 -7 127 0 169 -20
274 -129 43 -45 78 -77 78 -73 0 19 -54 111 -87 148 -56 62 -106 86 -193 92
-49 3 -91 0 -122 -9z"/>
<path d="M3276 4835 c-64 -65 91 -392 215 -456 124 -63 155 45 62 214 -91 167
-230 289 -277 242z"/>
<path d="M2963 4784 c-16 -44 68 -275 125 -339 55 -64 107 -80 142 -45 56 56
-17 213 -156 334 -77 68 -100 78 -111 50z"/>
<path d="M4435 3587 c-11 -17 -24 -97 -42 -248 -14 -123 -29 -228 -33 -232 -4
-5 -14 -2 -22 7 -11 10 -18 60 -27 183 -10 132 -16 173 -30 193 -26 35 -45 32
-49 -9 -13 -132 90 -961 127 -1026 24 -42 74 -66 112 -53 64 22 125 123 137
230 17 145 -18 245 -126 359 l-65 69 7 75 c4 41 18 145 31 231 29 182 30 217
11 233 -12 10 -18 8 -31 -12z m19 -675 c71 -101 85 -141 85 -240 1 -92 -14
-140 -56 -184 -28 -29 -60 -37 -68 -15 -13 34 -66 374 -72 456 l-6 94 33 -19
c18 -10 56 -52 84 -92z"/>
<path d="M4544 3334 c-9 -36 7 -94 29 -108 41 -25 63 76 27 119 -20 24 -49 18
-56 -11z"/>
<path d="M3767 3110 c-179 -147 -201 -177 -115 -164 35 6 38 5 38 -16 0 -36
48 -244 86 -371 19 -64 34 -120 34 -125 0 -6 -20 -15 -45 -22 -28 -7 -45 -18
-45 -27 0 -23 114 -20 165 4 51 24 145 112 127 119 -7 2 -39 -8 -71 -22 -32
-14 -63 -26 -68 -26 -6 0 -15 30 -22 68 -6 37 -31 160 -54 273 l-43 206 93
103 c51 57 93 107 93 112 0 23 -39 -2 -173 -112z"/>
<path d="M3982 3108 c-17 -17 -16 -68 2 -68 8 0 22 -3 31 -6 14 -6 16 0 13 37
-3 46 -22 61 -46 37z"/>
</g>
</svg>
