<?xml version="1.0" encoding="UTF-8" standalone="no"?>
<svg
   width="24"
   height="24"
   viewBox="0 0 24 24"
   fill="none"
   version="1.1"
   id="svg6"
   sodipodi:docname="connected_icon.svg"
   inkscape:version="1.1.2 (0a00cf5339, 2022-02-04)"
   xmlns:inkscape="http://www.inkscape.org/namespaces/inkscape"
   xmlns:sodipodi="http://sodipodi.sourceforge.net/DTD/sodipodi-0.dtd"
   xmlns="http://www.w3.org/2000/svg"
   xmlns:svg="http://www.w3.org/2000/svg">
  <defs
     id="defs10" />
  <sodipodi:namedview
     id="namedview8"
     pagecolor="#ffffff"
     bordercolor="#666666"
     borderopacity="1.0"
     inkscape:pageshadow="2"
     inkscape:pageopacity="0.0"
     inkscape:pagecheckerboard="0"
     showgrid="false"
     inkscape:zoom="23.039896"
     inkscape:cx="14.626802"
     inkscape:cy="6.3151327"
     inkscape:window-width="1846"
     inkscape:window-height="1016"
     inkscape:window-x="0"
     inkscape:window-y="0"
     inkscape:window-maximized="1"
     inkscape:current-layer="svg6" />
  <path
     d="m 19.09152,5.5940815 c 0.2929,-0.29289 0.2929,-0.76777 0,-1.06066 -0.2929,-0.29289 -0.7677,-0.29289 -1.0606,0 l -2.012,2.01194 c -1.6594,-1.17898 -3.9754,-1.02468 -5.4629,0.46289 l -1.0681003,1.06802 c -0.6834,0.68342 -0.6834,1.79146 0,2.4748795 l 3.5858003,3.5858 c 0.6835,0.6834 1.7915,0.6834 2.4749,0 l 1.068,-1.068 c 1.4876,-1.48759 1.6419,-3.8034995 0.463,-5.4629195 z m -3.5858,2.47483 0.0228,0.02282 0.0024,0.00235 0.0023,0.00234 0.0228,0.02275 c 1.0739,1.07394 1.0739,2.8151395 0,3.8890795 l -1.0681,1.068 c -0.0976,0.0977 -0.2559,0.0977 -0.3535,0 l -3.5858,-3.5857595 c -0.0976,-0.09763 -0.0976,-0.25592 0,-0.35356 l 1.068,-1.06802 c 1.074,-1.07394 2.8152,-1.07394 3.8891,0 z"
     fill="#212121"
     id="path2"
     style="fill:#00e000;fill-opacity:1" />
  <path
     d="m 4.5965521,18.102203 c -0.2929,0.292891 -0.2929,0.767771 0,1.060661 0.2929,0.29289 0.7677,0.29289 1.0606,0 l 2.0119996,-2.011941 c 1.6594,1.178981 3.9754003,1.02468 5.4629003,-0.46289 l 1.0681,-1.06802 c 0.6834,-0.68342 0.6834,-1.79146 0,-2.47488 l -3.5858,-3.5857993 c -0.6835003,-0.6833995 -1.7915003,-0.6833995 -2.4749003,0 L 7.0714521,10.627334 c -1.4876,1.48759 -1.6419,3.803499 -0.463,5.462919 z m 3.5857996,-2.47483 -0.0228,-0.02282 -0.0024,-0.0024 -0.0023,-0.0023 -0.0228,-0.02275 c -1.0738996,-1.07394 -1.0738996,-2.81514 0,-3.889079 l 1.0681,-1.068 c 0.0976,-0.0977 0.2559,-0.0977 0.3535,0 l 3.5858003,3.585759 c 0.0976,0.09763 0.0976,0.25592 0,0.35356 l -1.068,1.06802 c -1.074,1.07394 -2.8152003,1.07394 -3.8891003,0 z"
     fill="#212121"
     id="path1954"
     style="fill:#00e000;fill-opacity:1" />
</svg>
