<?xml version="1.0" encoding="UTF-8" standalone="no"?>
<!-- Generator: Adobe Illustrator 16.0.0, SVG Export Plug-In . SVG Version: 6.00 Build 0)  -->

<svg
   version="1.1"
   id="Layer_1"
   x="0px"
   y="0px"
   width="100"
   height="100"
   viewBox="0 0 100 100"
   enable-background="new 0 0 512 512"
   xml:space="preserve"
   sodipodi:docname="dashboard.svg"
   inkscape:version="1.1.2 (0a00cf5339, 2022-02-04)"
   xmlns:inkscape="http://www.inkscape.org/namespaces/inkscape"
   xmlns:sodipodi="http://sodipodi.sourceforge.net/DTD/sodipodi-0.dtd"
   xmlns="http://www.w3.org/2000/svg"
   xmlns:svg="http://www.w3.org/2000/svg"><defs
   id="defs33" /><sodipodi:namedview
   id="namedview31"
   pagecolor="#ffffff"
   bordercolor="#666666"
   borderopacity="1.0"
   inkscape:pageshadow="2"
   inkscape:pageopacity="0.0"
   inkscape:pagecheckerboard="0"
   showgrid="false"
   inkscape:zoom="1.5273438"
   inkscape:cx="256"
   inkscape:cy="255.67263"
   inkscape:window-width="1846"
   inkscape:window-height="1016"
   inkscape:window-x="0"
   inkscape:window-y="0"
   inkscape:window-maximized="1"
   inkscape:current-layer="Layer_1" />
<g
   id="g4"
   transform="matrix(0.22988506,0,0,0.22988506,-8.8505747,-8.8505747)">
	<path
   d="M 256,473.5 C 197.904,473.5 143.285,450.876 102.204,409.796 61.124,368.716 38.5,314.097 38.5,256 38.5,197.904 61.124,143.285 102.204,102.204 143.285,61.124 197.904,38.5 256,38.5 c 58.097,0 112.716,22.624 153.796,63.704 41.08,41.081 63.704,95.7 63.704,153.796 0,58.097 -22.624,112.716 -63.704,153.796 C 368.716,450.876 314.097,473.5 256,473.5 Z m 0,-400 C 155.369,73.5 73.5,155.369 73.5,256 73.5,356.631 155.369,438.5 256,438.5 356.631,438.5 438.5,356.631 438.5,256 438.5,155.369 356.631,73.5 256,73.5 Z"
   id="path2" />
</g>
<g
   id="g20"
   transform="matrix(0.22988506,0,0,0.22988506,-8.8505747,-8.8505747)">
	<path
   d="m 247.725,105.946 c 5.5,-0.74 11.1,-0.67 16.6,-0.031 0.051,15.271 0.021,30.531 0,45.801 -5.569,-0.28 -11.14,-0.311 -16.699,0.15 0.249,-15.31 0.019,-30.621 0.099,-45.92 z"
   id="path6" />
	<path
   d="m 188.215,120.776 c 4.99,-2.15 9.979,-4.301 15.08,-6.191 6.06,14.111 11.899,28.33 17.67,42.561 -5.34,1.551 -10.23,4.241 -15.44,6.11 -5.59,-14.23 -11.89,-28.181 -17.31,-42.48 z"
   id="path8" />
	<path
   d="m 291.114,157.075 c 5.761,-14.18 11.601,-28.34 17.641,-42.41 5.13,1.771 10.12,3.94 15.1,6.091 -5.439,14.29 -11.71,28.26 -17.34,42.48 -5.191,-1.91 -10.14,-4.43 -15.401,-6.161 z"
   id="path10" />
	<path
   d="m 139.175,158.095 c 2.83,-4.559 7.439,-8.37 11.6,-11.93 10.54,11.091 21.87,21.43 32.21,32.67 -4.31,3.42 -7.89,7.59 -11.79,11.441 -10.57,-10.829 -21.4,-21.409 -32.02,-32.181 z"
   id="path12" />
	<path
   d="m 361.234,146.446 c 4.34,2.899 8.72,7.26 11.64,11.6 -10.63,10.809 -21.42,21.459 -32.109,32.199 -3.73,-4.08 -7.72,-7.9 -11.71,-11.719 10.719,-10.7 21.38,-21.461 32.179,-32.08 z"
   id="path14" />
	<path
   d="m 113.534,195.476 c 14.311,5.311 28.2,11.709 42.41,17.301 -1.72,5.26 -4.569,10.1 -6.08,15.449 -14.189,-5.871 -28.409,-11.699 -42.569,-17.641 1.92,-5.099 4.05,-10.119 6.239,-15.109 z"
   id="path16" />
	<path
   d="m 356.084,212.777 c 14.221,-5.592 28.131,-11.98 42.45,-17.301 2.25,4.949 4.311,9.98 6.17,15.09 -14.12,5.971 -28.279,11.84 -42.479,17.641 -1.63,-5.311 -4.38,-10.18 -6.141,-15.43 z"
   id="path18" />
</g>
<path
   d="m 55.517241,67.164828 c 0,3.343218 -2.710344,6.053563 -6.053793,6.053563 h -0.07632 c -3.343448,0 -6.053793,-2.710345 -6.053793,-6.053563 l 2.298851,-26.283679 c 0,-3.343218 0.411494,-6.053563 3.754942,-6.053563 h 0.07632 c 3.343449,0 3.754943,2.710345 3.754943,6.053563 z"
   id="path22"
   style="stroke-width:0.229885" />
<rect
   x="29.770115"
   y="76.436783"
   width="11.034483"
   height="8.7356319"
   id="rect24"
   style="stroke-width:0.229885" />
<rect
   x="44.482758"
   y="76.436783"
   width="11.034483"
   height="8.7356319"
   id="rect26"
   style="stroke-width:0.229885" />
<rect
   x="58.735634"
   y="76.436783"
   width="11.034483"
   height="8.7356319"
   id="rect28"
   style="stroke-width:0.229885" />
</svg>
