<?xml version="1.0" encoding="UTF-8" standalone="no"?>
<!-- Uploaded to: SVG Repo, www.svgrepo.com, Generator: SVG Repo Mixer Tools -->

<svg
   fill="#000000"
   width="100"
   height="100"
   viewBox="0 0 4 4"
   id="icon"
   version="1.1"
   sodipodi:docname="humidity.svg"
   inkscape:version="1.1.2 (0a00cf5339, 2022-02-04)"
   xmlns:inkscape="http://www.inkscape.org/namespaces/inkscape"
   xmlns:sodipodi="http://sodipodi.sourceforge.net/DTD/sodipodi-0.dtd"
   xmlns="http://www.w3.org/2000/svg"
   xmlns:svg="http://www.w3.org/2000/svg"
   xmlns:rdf="http://www.w3.org/1999/02/22-rdf-syntax-ns#"
   xmlns:cc="http://creativecommons.org/ns#"
   xmlns:dc="http://purl.org/dc/elements/1.1/">
  <sodipodi:namedview
     id="namedview12"
     pagecolor="#ffffff"
     bordercolor="#666666"
     borderopacity="1.0"
     inkscape:pageshadow="2"
     inkscape:pageopacity="0.0"
     inkscape:pagecheckerboard="0"
     showgrid="false"
     inkscape:zoom="3.91"
     inkscape:cx="19.43734"
     inkscape:cy="54.859335"
     inkscape:window-width="1846"
     inkscape:window-height="1016"
     inkscape:window-x="0"
     inkscape:window-y="0"
     inkscape:window-maximized="1"
     inkscape:current-layer="icon" />
  <defs
     id="defs4">
    <style
       id="style2">
      .cls-1 {
        fill: none;
      }
    </style>
  </defs>
  <title
     id="title6">humidity</title>
  <path
     d="M 3.1961646,1.7589387 2.1355532,0.06988691 a 0.16639802,0.16639802 0 0 0 -0.2711007,0 L 0.79907315,1.7671306 A 1.597757,1.597757 0 0 0 0.56002,2.5600172 a 1.4399828,1.4399828 0 0 0 2.8799657,0 A 1.6100928,1.6100928 0 0 0 3.1961646,1.7589387 Z M 2.0000028,3.6800838 A 1.1214106,1.1214106 0 0 1 0.88001619,2.5600972 1.2764648,1.2764648 0 0 1 1.0749419,1.9290967 L 1.2245401,1.6908915 2.8363289,3.3025843 A 1.1163387,1.1163387 0 0 1 2.0000028,3.6800838 Z"
     id="path8"
     style="stroke-width:0.159998;fill:#004473;fill-opacity:0.61960787" />
  <rect
     id="_Transparent_Rectangle_"
     data-name="&lt;Transparent Rectangle&gt;"
     class="cls-1"
     width="32"
     height="32"
     x="0"
     y="0" />
  <metadata
     id="metadata829">
    <rdf:RDF>
      <cc:Work
         rdf:about="">
        <dc:title>humidity</dc:title>
      </cc:Work>
    </rdf:RDF>
  </metadata>
</svg>
