<?xml version="1.0" encoding="UTF-8" standalone="no"?>
<!-- Created with Inkscape (http://www.inkscape.org/) -->

<svg
   width="1000pt"
   height="1000pt"
   viewBox="0 0 352.77779 352.77777"
   version="1.1"
   id="svg5"
   inkscape:version="1.1.2 (0a00cf5339, 2022-02-04)"
   sodipodi:docname="icon.svg"
   xmlns:inkscape="http://www.inkscape.org/namespaces/inkscape"
   xmlns:sodipodi="http://sodipodi.sourceforge.net/DTD/sodipodi-0.dtd"
   xmlns="http://www.w3.org/2000/svg"
   xmlns:svg="http://www.w3.org/2000/svg">
  <sodipodi:namedview
     id="namedview7"
     pagecolor="#ffffff"
     bordercolor="#666666"
     borderopacity="1.0"
     inkscape:pageshadow="2"
     inkscape:pageopacity="0.0"
     inkscape:pagecheckerboard="true"
     inkscape:document-units="mm"
     showgrid="false"
     inkscape:zoom="0.26582971"
     inkscape:cx="951.73711"
     inkscape:cy="-103.44969"
     inkscape:window-width="1850"
     inkscape:window-height="1016"
     inkscape:window-x="70"
     inkscape:window-y="27"
     inkscape:window-maximized="1"
     inkscape:current-layer="layer1"
     inkscape:snap-path-mask="true"
     inkscape:snap-path-clip="true"
     inkscape:snap-tangential="true"
     inkscape:snap-object-midpoints="true"
     inkscape:snap-center="true"
     units="pt"
     width="1000pt" />
  <defs
     id="defs2">
    <inkscape:path-effect
       effect="copy_rotate"
       starting_point="0,0"
       origin="100,100"
       id="path-effect3871"
       is_visible="true"
       lpeversion="1"
       method="normal"
       num_copies="8"
       starting_angle="0"
       rotation_angle="60"
       gap="0"
       copies_to_360="true"
       mirror_copies="false"
       split_items="false" />
    <inkscape:path-effect
       effect="copy_rotate"
       starting_point="0,0"
       origin="-1929,0"
       id="path-effect3869"
       is_visible="true"
       lpeversion="1"
       method="normal"
       num_copies="7"
       starting_angle="0"
       rotation_angle="60"
       gap="-0.01"
       copies_to_360="true"
       mirror_copies="false"
       split_items="false" />
    <inkscape:path-effect
       effect="copy_rotate"
       starting_point="494.49943,-242.65495"
       origin="464.14831,-242.65495"
       id="path-effect2713"
       is_visible="true"
       lpeversion="1"
       method="normal"
       num_copies="8"
       starting_angle="0"
       rotation_angle="45"
       gap="-0.02"
       copies_to_360="true"
       mirror_copies="false"
       split_items="false" />
    <pattern
       patternUnits="userSpaceOnUse"
       width="1642.4992"
       height="857.48789"
       patternTransform="translate(-867.93289,-898.11048)"
       id="pattern1234">
      <circle
         style="fill:none;fill-opacity:0.250513;stroke:#52c0f2;stroke-width:84.9679;stroke-miterlimit:4;stroke-dasharray:none;stroke-dashoffset:0;stroke-opacity:1"
         id="circle2503"
         cx="1213.7552"
         cy="428.74396"
         r="386.25998" />
      <path
         sodipodi:type="star"
         style="fill:#38f220;fill-opacity:0.342411;stroke-width:83.4557;stroke-opacity:0.130238"
         id="path869"
         inkscape:flatsided="true"
         sodipodi:sides="8"
         sodipodi:cx="-879.3222"
         sodipodi:cy="-907.79449"
         sodipodi:r1="272.41055"
         sodipodi:r2="251.67453"
         sodipodi:arg1="0"
         sodipodi:arg2="0.39269908"
         inkscape:rounded="0"
         inkscape:randomized="0"
         d="m -606.91165,-907.79449 -79.78721,192.62334 -192.62334,79.78721 -192.6234,-79.78721 -79.7872,-192.62334 79.7872,-192.62331 192.6234,-79.7872 192.62334,79.7872 z"
         transform="matrix(0.50184026,0,0,0.50184026,577.98587,763.91899)"
         inkscape:transform-center-x="-5.8237568e-06"
         inkscape:transform-center-y="5.7982531e-06" />
    </pattern>
  </defs>
  <g
     inkscape:label="Warstwa 1"
     inkscape:groupmode="layer"
     id="layer1">
    <rect
       style="fill:#40bdf5;fill-opacity:1;stroke-width:30.9582;stroke-opacity:0.130238"
       id="rect862"
       width="352.77777"
       height="352.77777"
       x="0"
       y="0"
       ry="27.949152" />
    <path
       id="path3422"
       style="fill:#ffffff;fill-opacity:1;stroke-width:21.101;stroke-opacity:0.130238"
       d="m 176.38938,49.605791 c -13.44053,0.005 -25.12813,9.216432 -28.2742,22.283551 -9.12598,2.467345 -17.69738,6.08111 -25.61419,10.621084 -11.46549,-7.023118 -26.25001,-5.274723 -35.76108,4.229025 -9.48962,9.497508 -11.24789,24.255329 -4.25526,35.716529 -4.60795,8.00558 -8.21221,16.62609 -10.66411,25.67708 -13.03296,3.1714 -22.20859,14.84205 -22.21475,28.25534 0.007,13.40936 9.17592,25.07787 22.20385,28.25337 2.43002,8.99366 6.0158,17.63509 10.65572,25.71321 a 29.093587,29.093588 0 0 0 4.27406,35.68289 29.093587,29.093588 0 0 0 35.68337,4.27455 c 8.07814,4.63994 16.71962,8.22568 25.71319,10.65571 3.17547,13.02775 14.84373,22.1978 28.2529,22.20385 13.4087,-0.007 25.07657,-9.17568 28.25239,-22.20288 8.99479,-2.43069 17.6402,-6.01173 25.71912,-10.65371 11.45715,6.96624 26.19151,5.19987 35.67745,-4.27705 9.48921,-9.4903 11.25548,-24.24009 4.27555,-35.70267 4.62611,-8.07041 8.1978,-16.70439 10.62598,-25.68597 13.04188,-3.16485 22.22674,-14.83992 22.23261,-28.2603 0,-13.40989 -9.16753,-25.08206 -22.19497,-28.26179 -2.44786,-9.05808 -6.04778,-17.68735 -10.65474,-25.69984 6.96973,-11.46096 5.20023,-26.201561 -4.28394,-35.687333 -9.48446,-9.476019 -24.21647,-11.243721 -35.67347,-4.2805 C 222.42192,77.896824 213.8042,74.287762 204.64225,71.812641 201.46774,58.784092 189.79923,49.612627 176.38938,49.606294 Z m 0,18.450513 c 5.87776,2.18e-4 10.6426,4.76507 10.64283,10.642847 5e-5,5.877977 -4.76487,10.643123 -10.64283,10.643341 -5.87819,3.8e-5 -10.6434,-4.765155 -10.64334,-10.643341 2.1e-4,-5.877995 4.76535,-10.642876 10.64334,-10.642847 z m 25.27217,25.053906 c 5.52926,1.6778 10.7925,3.875129 15.74844,6.521699 -2.7599,10.078111 0.0968,20.862221 7.48396,28.252421 7.39009,7.38697 18.17397,10.24362 28.25189,7.48392 2.67314,4.99731 4.83961,10.28103 6.50442,15.76232 -9.06669,5.17794 -14.66346,14.81729 -14.66548,25.25833 0.003,10.45467 5.61409,20.10423 14.6996,25.27664 -1.66667,5.49919 -3.86508,10.76685 -6.53111,15.74646 -10.07993,-2.76338 -20.86762,0.0926 -28.25984,7.48148 -7.39106,7.39467 -10.24607,18.18657 -7.47848,28.26871 -4.97685,2.66619 -10.24319,4.86185 -15.73955,6.52917 -5.17238,-9.09126 -14.82684,-14.70627 -25.28652,-14.70655 -10.4585,0.003 -20.11083,5.61866 -25.28159,14.70951 -5.49918,-1.66672 -10.75545,-3.88286 -15.7346,-6.54944 a 29.093587,29.093588 0 0 0 -7.48839,-28.2514 29.093587,29.093588 0 0 0 -28.24743,-7.48544 c -2.6664,-4.97879 -4.88246,-10.23465 -6.54947,-15.7331 9.09089,-5.17264 14.70547,-14.82707 14.70557,-25.28654 -0.002,-10.44381 -5.6023,-20.08513 -14.6729,-25.26177 1.66898,-5.48294 3.89093,-10.74361 6.56924,-15.74104 10.06359,2.73313 20.82031,-0.12887 28.19499,-7.50178 7.36932,-7.3704 10.23302,-18.11979 7.50719,-28.179611 4.96205,-2.64888 10.22373,-4.858644 15.76036,-6.536075 5.18461,9.044566 14.81233,14.623736 25.23753,14.624876 10.44956,0 20.09621,-5.60516 25.27217,-14.68279 z m 43.16187,3.577149 v 4.8e-4 c 3.04069,-0.18386 6.01447,0.94397 8.16848,3.09803 4.15591,4.156371 4.15591,10.894691 0,15.051041 -4.15628,4.15638 -10.89498,4.15659 -15.05152,0 -4.15657,-4.15649 -4.15657,-10.89555 0,-15.052031 1.83889,-1.83868 4.28733,-2.94056 6.88304,-3.09752 z m -138.15404,4.8e-4 c 3.04065,-0.18399 6.0144,0.94364 8.1685,3.09753 4.15622,4.156421 4.15622,10.895131 0,15.051541 -4.15643,4.15624 -10.89513,4.15624 -15.05155,0 -4.15623,-4.15641 -4.15623,-10.89512 0,-15.051541 1.83889,-1.8387 4.28733,-2.94055 6.88305,-3.09753 z M 78.6991,165.74505 c 5.878,-5e-5 10.64314,4.76487 10.64338,10.64286 2e-5,5.87815 -4.76519,10.64339 -10.64338,10.64335 -5.87797,-2.2e-4 -10.64286,-4.76537 -10.64283,-10.64335 2.2e-4,-5.87779 4.76506,-10.64262 10.64283,-10.64286 z m 195.37952,0 c 5.87799,2.4e-4 10.64285,4.76538 10.64285,10.64335 -2.1e-4,5.87779 -4.76508,10.64264 -10.64285,10.64286 -5.87797,4e-5 -10.64312,-4.76488 -10.64336,-10.64286 -3e-5,-5.87817 4.76518,-10.6434 10.64336,-10.64335 z M 96.27404,218.56578 a 29.093587,29.093588 0 0 0 -0.30196,0.11876 c 0.0997,-0.042 0.20173,-0.0777 0.30196,-0.11876 z m -3.3183,1.61758 a 29.093587,29.093588 0 0 0 -0.47615,0.27517 c 0.15803,-0.0936 0.31636,-0.18453 0.47615,-0.27517 z m -3.23114,2.12192 a 29.093587,29.093588 0 0 0 -0.38312,0.3054 c 0.12874,-0.10109 0.25284,-0.20656 0.38312,-0.3054 z m -5.11306,4.99622 a 29.093587,29.093588 0 0 0 -0.28013,0.35143 c 0.0918,-0.11875 0.18659,-0.23406 0.28013,-0.35143 z m 160.21088,7.54039 h 7.2e-4 c 3.04039,-0.1836 6.01375,0.94418 8.1675,3.09802 4.15611,4.15654 4.15591,10.89524 0,15.05153 -4.15636,4.1559 -10.89467,4.1559 -15.05104,0 -4.15639,-4.15628 -4.15663,-10.89499 0,-15.05153 1.83873,-1.83876 4.28698,-2.94081 6.88255,-3.09802 z m -138.15304,4.9e-4 a 10.643266,10.643266 0 0 1 8.1685,3.09753 10.643266,10.643266 0 0 1 0,15.05202 10.643266,10.643266 0 0 1 -15.05203,-4.9e-4 10.643266,10.643266 0 0 1 4.8e-4,-15.05153 10.643266,10.643266 0 0 1 6.88305,-3.09753 z m 25.8028,25.2301 c -7.2e-4,0.003 -0.002,0.009 -0.007,0.0105 a 29.093587,29.093588 0 0 0 0.007,-0.0105 z m 43.9167,3.36235 c 5.87817,-6e-5 10.64338,4.76515 10.64333,10.64334 -2.3e-4,5.87795 -4.76536,10.64284 -10.64333,10.64282 -5.87778,-2.4e-4 -10.64263,-4.76505 -10.64284,-10.64282 -6e-5,-5.87799 4.76485,-10.64314 10.64284,-10.64334 z m -50.91508,4.73336 c -0.11611,0.0926 -0.23001,0.18647 -0.34746,0.27721 a 29.093587,29.093588 0 0 0 0.34746,-0.27721 z" />
  </g>
</svg>
