<?xml version="1.0" encoding="UTF-8" standalone="no"?>
<!-- Created with Inkscape (http://www.inkscape.org/) -->

<svg
   width="1000pt"
   height="1000pt"
   viewBox="0 0 352.77779 352.77777"
   version="1.1"
   id="svg5"
   inkscape:version="1.1.2 (0a00cf5339, 2022-02-04)"
   sodipodi:docname="logo.svg"
   xmlns:inkscape="http://www.inkscape.org/namespaces/inkscape"
   xmlns:sodipodi="http://sodipodi.sourceforge.net/DTD/sodipodi-0.dtd"
   xmlns="http://www.w3.org/2000/svg"
   xmlns:svg="http://www.w3.org/2000/svg">
  <sodipodi:namedview
     id="namedview7"
     pagecolor="#ffffff"
     bordercolor="#666666"
     borderopacity="1.0"
     inkscape:pageshadow="2"
     inkscape:pageopacity="0.0"
     inkscape:pagecheckerboard="true"
     inkscape:document-units="mm"
     showgrid="false"
     inkscape:zoom="0.18796999"
     inkscape:cx="1319.3595"
     inkscape:cy="194.17993"
     inkscape:window-width="1850"
     inkscape:window-height="1016"
     inkscape:window-x="70"
     inkscape:window-y="27"
     inkscape:window-maximized="1"
     inkscape:current-layer="layer1"
     inkscape:snap-path-mask="true"
     inkscape:snap-path-clip="true"
     inkscape:snap-tangential="true"
     inkscape:snap-object-midpoints="true"
     inkscape:snap-center="true"
     units="pt"
     width="1000pt" />
  <defs
     id="defs2">
    <inkscape:path-effect
       effect="copy_rotate"
       starting_point="0,0"
       origin="100,100"
       id="path-effect3871"
       is_visible="true"
       lpeversion="1"
       method="normal"
       num_copies="8"
       starting_angle="0"
       rotation_angle="60"
       gap="0"
       copies_to_360="true"
       mirror_copies="false"
       split_items="false" />
    <inkscape:path-effect
       effect="copy_rotate"
       starting_point="0,0"
       origin="-1929,0"
       id="path-effect3869"
       is_visible="true"
       lpeversion="1"
       method="normal"
       num_copies="7"
       starting_angle="0"
       rotation_angle="60"
       gap="-0.01"
       copies_to_360="true"
       mirror_copies="false"
       split_items="false" />
    <inkscape:path-effect
       effect="copy_rotate"
       starting_point="494.49943,-242.65495"
       origin="464.14831,-242.65495"
       id="path-effect2713"
       is_visible="true"
       lpeversion="1"
       method="normal"
       num_copies="8"
       starting_angle="0"
       rotation_angle="45"
       gap="-0.02"
       copies_to_360="true"
       mirror_copies="false"
       split_items="false" />
    <pattern
       patternUnits="userSpaceOnUse"
       width="1642.4992"
       height="857.48789"
       patternTransform="translate(-867.93289,-898.11048)"
       id="pattern1234">
      <circle
         style="fill:none;fill-opacity:0.250513;stroke:#52c0f2;stroke-width:84.9679;stroke-miterlimit:4;stroke-dasharray:none;stroke-dashoffset:0;stroke-opacity:1"
         id="circle2503"
         cx="1213.7552"
         cy="428.74396"
         r="386.25998" />
      <path
         sodipodi:type="star"
         style="fill:#38f220;fill-opacity:0.342411;stroke-width:83.4557;stroke-opacity:0.130238"
         id="path869"
         inkscape:flatsided="true"
         sodipodi:sides="8"
         sodipodi:cx="-879.3222"
         sodipodi:cy="-907.79449"
         sodipodi:r1="272.41055"
         sodipodi:r2="251.67453"
         sodipodi:arg1="0"
         sodipodi:arg2="0.39269908"
         inkscape:rounded="0"
         inkscape:randomized="0"
         d="m -606.91165,-907.79449 -79.78721,192.62334 -192.62334,79.78721 -192.6234,-79.78721 -79.7872,-192.62334 79.7872,-192.62331 192.6234,-79.7872 192.62334,79.7872 z"
         transform="matrix(0.50184026,0,0,0.50184026,577.98587,763.91899)"
         inkscape:transform-center-x="-5.8237568e-06"
         inkscape:transform-center-y="5.7982531e-06" />
    </pattern>
  </defs>
  <g
     inkscape:label="Warstwa 1"
     inkscape:groupmode="layer"
     id="layer1">
    <path
       id="path3422"
       style="fill:#ffffff;fill-opacity:1;stroke-width:29.3571;stroke-opacity:0.130238"
       d="m 176.38958,0 c -18.69934,0.007 -34.95989,12.8225 -39.33691,31.002326 -12.69666,3.432731 -24.62174,8.460435 -35.63613,14.776743 -15.95153,-9.771019 -36.52072,-7.338538 -49.75314,5.88369 -13.202573,13.21356 -15.648793,33.7456 -5.920191,49.691161 -6.41088,11.13789 -11.425361,23.1313 -14.836604,35.72363 C 12.774304,141.4898 0.00857,157.72677 0,176.38821 c 0.0097,18.65598 12.766137,34.88997 30.89144,39.30793 3.380802,12.51256 8.369573,24.53508 14.824931,35.77389 a 40.476891,40.476892 0 0 0 5.946349,49.64436 40.476891,40.476892 0 0 0 49.64503,5.94703 c 11.23883,6.45539 23.26142,11.4441 35.77386,14.82492 4.41792,18.12505 20.65156,30.88302 39.30727,30.89144 18.65506,-0.01 34.88816,-12.76581 39.30656,-30.89009 12.51414,-3.38174 24.5422,-8.36391 35.78212,-14.82214 15.93993,9.69189 36.43933,7.2344 49.63679,-5.95051 13.202,-13.20352 15.65935,-33.72439 5.94842,-49.67188 6.43615,-11.22807 11.40531,-23.24023 14.78355,-35.73599 18.14472,-4.40314 30.92329,-20.64626 30.93146,-39.31757 0,-18.65671 -12.75447,-34.89579 -30.87909,-39.31964 -3.40562,-12.60219 -8.41406,-24.60779 -14.82357,-35.75528 9.69675,-15.945241 7.2349,-36.453321 -5.96009,-49.650541 -13.1954,-13.183658 -33.69153,-15.643 -49.63125,-5.955314 C 240.43304,39.360325 228.44351,34.339164 215.69681,30.895614 211.28022,12.769449 195.04623,0.009511 176.38958,7e-4 Z m 0,25.669554 c 8.17752,3.03e-4 14.80667,6.629475 14.80699,14.807021 7e-5,8.177824 -6.62919,14.807404 -14.80699,14.807704 -8.17812,6e-5 -14.80779,-6.629589 -14.80771,-14.807704 2.9e-4,-8.177849 6.62987,-14.807061 14.80771,-14.807021 z m 35.16028,34.856625 c 7.69267,2.33426 15.01523,5.39133 21.91026,9.07341 -3.83975,14.02132 0.13467,29.02488 10.41217,39.306611 10.28157,10.27723 25.28481,14.25159 39.30587,10.41211 3.71904,6.95259 6.73318,14.30364 9.04937,21.92957 -12.61417,7.20388 -20.40076,20.61478 -20.40357,35.14103 0.004,14.54522 7.81069,27.97031 20.45104,35.16651 -2.31878,7.65083 -5.37735,14.97954 -9.08651,21.90749 -14.02385,-3.84459 -29.03239,0.12884 -39.31692,10.40873 -10.28293,10.28794 -14.255,25.30234 -10.40455,39.32926 -6.92412,3.70938 -14.25099,6.76413 -21.89789,9.08381 -7.19615,-12.64835 -20.62806,-20.46032 -35.18025,-20.46071 -14.55054,0.004 -27.97949,7.81705 -35.17339,20.46483 -7.65082,-2.31885 -14.96368,-5.40209 -21.891,-9.11201 A 40.476891,40.476892 0 0 0 108.90616,243.87164 40.476891,40.476892 0 0 0 69.60649,233.45741 c -3.70967,-6.92682 -6.79279,-14.23912 -9.11205,-21.88892 12.64784,-7.19651 20.45921,-20.62838 20.45935,-35.18028 -0.003,-14.5301 -7.79428,-27.94374 -20.41389,-35.14581 2.32199,-7.62823 5.41331,-14.94721 9.13955,-21.89996 14.00112,3.80251 28.96657,-0.1793 39.22671,-10.43697 10.25267,-10.254181 14.23684,-25.209431 10.44449,-39.205301 6.90352,-3.6853 14.22391,-6.75967 21.92683,-9.09342 7.21317,12.58339 20.60788,20.3455 35.1121,20.34708 14.53811,0 27.95915,-7.79826 35.16028,-20.42765 z m 60.04961,4.97676 v 6.7e-4 c 4.2304,-0.2558 8.36772,1.31331 11.36452,4.31018 5.78197,5.78261 5.78197,15.1574 0,20.93999 -5.78249,5.78262 -15.15781,5.78292 -20.94066,0 -5.78289,-5.78278 -5.78289,-15.1586 0,-20.94137 2.55839,-2.55809 5.96481,-4.0911 9.57614,-4.30947 z m -192.20889,6.7e-4 c 4.23035,-0.25598 8.36762,1.31285 11.36455,4.30948 5.7824,5.78269 5.7824,15.15802 0,20.94069 -5.7827,5.78243 -15.15802,5.78243 -20.9407,0 -5.78242,-5.78267 -5.78242,-15.158 0,-20.94069 2.55838,-2.55811 5.96481,-4.09108 9.57615,-4.30948 z M 40.476505,161.58049 c 8.177856,-7e-5 14.807425,6.6292 14.807765,14.80704 3e-5,8.17807 -6.629644,14.80778 -14.807765,14.80772 -8.177814,-3e-4 -14.807039,-6.62989 -14.806997,-14.80772 3.06e-4,-8.17756 6.629461,-14.8067 14.806997,-14.80704 z m 271.824695,0 c 8.17784,3.4e-4 14.80703,6.62991 14.80703,14.80772 -2.9e-4,8.17757 -6.62949,14.80674 -14.80703,14.80704 -8.17781,6e-5 -14.8074,-6.62921 -14.80773,-14.80704 -4e-5,-8.17809 6.62963,-14.80779 14.80773,-14.80772 z M 64.92791,235.06813 a 40.476891,40.476892 0 0 0 -0.42011,0.16523 c 0.13871,-0.0584 0.28066,-0.10811 0.42011,-0.16523 z m -4.61664,2.25048 a 40.476891,40.476892 0 0 0 -0.66245,0.38284 c 0.21986,-0.13023 0.44014,-0.25673 0.66245,-0.38284 z m -4.49537,2.95215 a 40.476891,40.476892 0 0 0 -0.53302,0.4249 c 0.17911,-0.14065 0.35176,-0.28738 0.53302,-0.4249 z m -7.113624,6.95107 a 40.476891,40.476892 0 0 0 -0.389735,0.48893 c 0.127719,-0.16521 0.259597,-0.32564 0.389735,-0.48893 z m 222.895794,10.49068 h 10e-4 c 4.22998,-0.25543 8.36672,1.31361 11.36315,4.31017 5.78225,5.78285 5.78198,15.15816 0,20.94067 -5.7826,5.78195 -15.15737,5.78195 -20.93998,0 -5.78264,-5.78249 -5.78298,-15.15782 0,-20.94067 2.55816,-2.5582 5.96432,-4.09145 9.57545,-4.31017 z m -192.20749,6.8e-4 a 14.807604,14.807604 0 0 1 11.36455,4.30949 14.807604,14.807604 0 0 1 0,20.94135 14.807604,14.807604 0 0 1 -20.94137,-6.8e-4 14.807604,14.807604 0 0 1 6.7e-4,-20.94067 14.807604,14.807604 0 0 1 9.57615,-4.30949 z m 35.89853,35.10176 c -10e-4,0.004 -0.003,0.0125 -0.01,0.0146 a 40.476891,40.476892 0 0 0 0.01,-0.0146 z m 61.09977,4.67792 c 8.17809,-8e-5 14.80776,6.62959 14.80769,14.80771 -3.2e-4,8.17778 -6.62987,14.80701 -14.80769,14.80698 -8.17755,-3.3e-4 -14.80672,-6.62945 -14.80701,-14.80698 -8e-5,-8.17785 6.62917,-14.80743 14.80701,-14.80771 z m -70.83637,6.58536 c -0.16154,0.12883 -0.32,0.25943 -0.48341,0.38567 a 40.476891,40.476892 0 0 0 0.48341,-0.38567 z" />
  </g>
</svg>
