<?xml version="1.0" encoding="UTF-8" standalone="no"?>
<svg
   fill="none"
   height="100"
   viewBox="0 0 100 100"
   width="100"
   version="1.1"
   id="svg18"
   sodipodi:docname="pressure.svg"
   inkscape:version="1.1.2 (0a00cf5339, 2022-02-04)"
   xmlns:inkscape="http://www.inkscape.org/namespaces/inkscape"
   xmlns:sodipodi="http://sodipodi.sourceforge.net/DTD/sodipodi-0.dtd"
   xmlns="http://www.w3.org/2000/svg"
   xmlns:svg="http://www.w3.org/2000/svg">
  <defs
     id="defs22" />
  <sodipodi:namedview
     id="namedview20"
     pagecolor="#ffffff"
     bordercolor="#666666"
     borderopacity="1.0"
     inkscape:pageshadow="2"
     inkscape:pageopacity="0.0"
     inkscape:pagecheckerboard="0"
     showgrid="false"
     units="px"
     width="100mm"
     height="100px"
     inkscape:zoom="2.879987"
     inkscape:cx="-5.9028044"
     inkscape:cy="23.090382"
     inkscape:window-width="1846"
     inkscape:window-height="1016"
     inkscape:window-x="0"
     inkscape:window-y="0"
     inkscape:window-maximized="1"
     inkscape:current-layer="svg18" />
  <g
     fill="#0f0f0f"
     id="g16"
     transform="matrix(4.5454545,0,0,4.5454545,-4.5454545,-4.5454545)"
     style="fill:#004473;fill-opacity:0.61960787">
    <path
       d="m 12,9 c -0.5523,0 -1,0.44771 -1,1 v 5.2676 c -0.5978,0.3458 -1,0.9921 -1,1.7324 0,1.1046 0.8954,2 2,2 1.1046,0 2,-0.8954 2,-2 0,-0.7403 -0.4022,-1.3866 -1,-1.7324 V 10 C 13,9.44771 12.5523,9 12,9 Z"
       id="path2"
       style="fill:#004473;fill-opacity:0.61960787" />
    <path
       d="m 11,6 c 0,-0.55228 0.4477,-1 1,-1 0.5523,0 1,0.44772 1,1 0,0.55228 -0.4477,1 -1,1 -0.5523,0 -1,-0.44772 -1,-1 z"
       id="path4"
       style="fill:#004473;fill-opacity:0.61960787" />
    <path
       d="m 16,7 c -0.5523,0 -1,0.44772 -1,1 0,0.55229 0.4477,1 1,1 0.5523,0 1,-0.44771 1,-1 0,-0.55228 -0.4477,-1 -1,-1 z"
       id="path6"
       style="fill:#004473;fill-opacity:0.61960787" />
    <path
       d="m 6,13 c -0.55228,0 -1,-0.4477 -1,-1 0,-0.5523 0.44772,-1 1,-1 0.55228,0 1,0.4477 1,1 0,0.5523 -0.44772,1 -1,1 z"
       id="path8"
       style="fill:#004473;fill-opacity:0.61960787" />
    <path
       d="M 7,8 C 7,8.55229 7.44772,9 8,9 8.55228,9 9,8.55228 9,8 9,7.44772 8.55228,7 8,7 7.44772,7 7,7.44772 7,8 Z"
       id="path10"
       style="fill:#004473;fill-opacity:0.61960787" />
    <path
       d="m 18,13 c -0.5523,0 -1,-0.4477 -1,-1 0,-0.5523 0.4477,-1 1,-1 0.5523,0 1,0.4477 1,1 0,0.5523 -0.4477,1 -1,1 z"
       id="path12"
       style="fill:#004473;fill-opacity:0.61960787" />
    <path
       clip-rule="evenodd"
       d="M 12,23 C 18.0751,23 23,18.0751 23,12 23,5.92487 18.0751,1 12,1 5.92487,1 1,5.92487 1,12 1,18.0751 5.92487,23 12,23 Z m 0,-2.0068 C 7.03321,20.9932 3.00683,16.9668 3.00683,12 3.00683,7.03321 7.03321,3.00683 12,3.00683 c 4.9668,0 8.9932,4.02638 8.9932,8.99317 0,4.9668 -4.0264,8.9932 -8.9932,8.9932 z"
       fill-rule="evenodd"
       id="path14"
       style="fill:#004473;fill-opacity:0.61960787" />
  </g>
</svg>
