<?xml version="1.0" encoding="UTF-8" standalone="no"?>
<!-- Created with Inkscape (http://www.inkscape.org/) -->

<svg
   width="210mm"
   height="297mm"
   viewBox="0 0 210 297"
   version="1.1"
   id="svg65006"
   inkscape:version="1.1.2 (0a00cf5339, 2022-02-04)"
   sodipodi:docname="temp_disconnected.svg"
   xmlns:inkscape="http://www.inkscape.org/namespaces/inkscape"
   xmlns:sodipodi="http://sodipodi.sourceforge.net/DTD/sodipodi-0.dtd"
   xmlns="http://www.w3.org/2000/svg"
   xmlns:svg="http://www.w3.org/2000/svg">
  <sodipodi:namedview
     id="namedview65008"
     pagecolor="#ffffff"
     bordercolor="#666666"
     borderopacity="1.0"
     inkscape:pageshadow="2"
     inkscape:pageopacity="0.0"
     inkscape:pagecheckerboard="0"
     inkscape:document-units="mm"
     showgrid="false"
     inkscape:zoom="0.69664703"
     inkscape:cx="396.18342"
     inkscape:cy="560.54212"
     inkscape:window-width="1846"
     inkscape:window-height="1016"
     inkscape:window-x="0"
     inkscape:window-y="0"
     inkscape:window-maximized="1"
     inkscape:current-layer="layer1" />
  <defs
     id="defs65003" />
  <g
     inkscape:label="Warstwa 1"
     inkscape:groupmode="layer"
     id="layer1">
    <circle
       style="fill:#f0eef0;fill-opacity:1;stroke-width:4.38152"
       id="circle21219"
       cx="104.76568"
       cy="124.47201"
       r="89.928909" />
    <path
       class="st0"
       d="M 94.961905,115.9915 H 107.16977 V 95.972626 c 0,-1.676613 -0.68782,-3.205611 -1.79316,-4.310943 -1.10533,-1.10599 -2.63439,-1.793378 -4.31082,-1.793378 -1.676401,0 -3.205517,0.687388 -4.310841,1.793378 -1.105325,1.105992 -1.793167,2.63433 -1.793167,4.310943 z M 114.70451,95.297134 c -0.86585,0 -1.5658,-0.700608 -1.5658,-1.566454 0,-0.865846 0.69995,-1.566453 1.5658,-1.566453 h 8.68308 c 0.86584,0 1.56579,0.700607 1.56579,1.566453 0,0.865846 -0.69995,1.566454 -1.56579,1.566454 z m 0,8.824136 c -0.86585,0 -1.5658,-0.70061 -1.5658,-1.56645 0,-0.86585 0.69995,-1.56646 1.5658,-1.56646 h 8.68308 c 0.86584,0 1.56579,0.70061 1.56579,1.56646 0,0.86584 -0.69995,1.56645 -1.56579,1.56645 z m 0,8.82435 c -0.86585,0 -1.5658,-0.7006 -1.5658,-1.56645 0,-0.86585 0.69995,-1.56645 1.5658,-1.56645 h 8.68308 c 0.86584,0 1.56579,0.7006 1.56579,1.56645 0,0.86585 -0.69995,1.56645 -1.56579,1.56645 z m 0,8.82436 c -0.86585,0 -1.5658,-0.70061 -1.5658,-1.56646 0,-0.86584 0.69995,-1.56645 1.5658,-1.56645 h 8.68308 c 0.86584,0 1.56579,0.70061 1.56579,1.56645 0,0.86585 -0.69995,1.56646 -1.56579,1.56646 z m 0,8.82435 c -0.86585,0 -1.5658,-0.70061 -1.5658,-1.56645 0,-0.86585 0.69995,-1.56645 1.5658,-1.56645 h 8.68308 c 0.86584,0 1.56579,0.7006 1.56579,1.56645 0,0.86584 -0.69995,1.56645 -1.56579,1.56645 z m -4.40909,1.86609 c 4.21873,2.95357 6.97593,7.85408 6.97593,13.39306 0,9.02683 -7.31979,16.34663 -16.34676,16.34663 -9.026928,0 -16.346752,-7.3198 -16.346752,-16.34663 0,-5.66192 2.880019,-10.6543 7.258398,-13.58342 V 95.971965 c 0,-2.542458 1.037923,-4.845211 2.708081,-6.521602 1.670211,-1.670002 3.979228,-2.708137 6.521523,-2.708137 2.54226,0 4.84509,1.037693 6.52152,2.708137 1.67023,1.670002 2.70806,3.979144 2.70806,6.521602 z"
       id="path21221"
       style="clip-rule:evenodd;fill:#171517;fill-opacity:1;fill-rule:evenodd;stroke-width:0.614079" />
  </g>
</svg>
