<?xml version="1.0" encoding="UTF-8" standalone="no"?>
<!-- Created with Inkscape (http://www.inkscape.org/) -->

<svg
   width="100mm"
   height="100mm"
   viewBox="0 0 100 100"
   version="1.1"
   id="svg65130"
   inkscape:version="1.1.2 (0a00cf5339, 2022-02-04)"
   sodipodi:docname="temp_connected.svg"
   xmlns:inkscape="http://www.inkscape.org/namespaces/inkscape"
   xmlns:sodipodi="http://sodipodi.sourceforge.net/DTD/sodipodi-0.dtd"
   xmlns="http://www.w3.org/2000/svg"
   xmlns:svg="http://www.w3.org/2000/svg">
  <sodipodi:namedview
     id="namedview65132"
     pagecolor="#ffffff"
     bordercolor="#666666"
     borderopacity="1.0"
     inkscape:pageshadow="2"
     inkscape:pageopacity="0.0"
     inkscape:pagecheckerboard="0"
     inkscape:document-units="mm"
     showgrid="false"
     inkscape:zoom="0.98520766"
     inkscape:cx="331.90972"
     inkscape:cy="104.03898"
     inkscape:window-width="1846"
     inkscape:window-height="1016"
     inkscape:window-x="0"
     inkscape:window-y="0"
     inkscape:window-maximized="1"
     inkscape:current-layer="layer1" />
  <defs
     id="defs65127" />
  <g
     inkscape:label="Warstwa 1"
     inkscape:groupmode="layer"
     id="layer1">
    <g
       id="g857"
       transform="scale(1.4230744)">
      <circle
         style="fill:#f9d4d3;fill-opacity:1;stroke-width:1.71185"
         id="path878"
         cx="35.135197"
         cy="35.135197"
         r="35.135197" />
      <path
         class="st0"
         d="m 31.304915,31.821962 h 4.769612 v -7.821454 c 0,-0.655058 -0.268735,-1.25235 -0.700588,-1.684201 -0.431849,-0.43211 -1.029258,-0.700669 -1.684239,-0.700669 -0.654964,0 -1.252389,0.268559 -1.684241,0.700669 -0.431851,0.43211 -0.700587,1.029233 -0.700587,1.684201 z m 7.713428,-8.085285 c -0.338283,0 -0.611755,-0.273725 -0.611755,-0.612015 0,-0.338279 0.273472,-0.612015 0.611755,-0.612015 h 3.392483 c 0.338283,0 0.611755,0.273736 0.611755,0.612015 0,0.33829 -0.273472,0.612015 -0.611755,0.612015 z m 0,3.44759 c -0.338283,0 -0.611755,-0.273726 -0.611755,-0.612015 0,-0.33829 0.273472,-0.612015 0.611755,-0.612015 h 3.392483 c 0.338283,0 0.611755,0.273725 0.611755,0.612015 0,0.338289 -0.273472,0.612015 -0.611755,0.612015 z m 0,3.447669 c -0.338283,0 -0.611755,-0.273726 -0.611755,-0.612015 0,-0.33828 0.273472,-0.612006 0.611755,-0.612006 h 3.392483 c 0.338283,0 0.611755,0.273726 0.611755,0.612006 0,0.338289 -0.273472,0.612015 -0.611755,0.612015 z m 0,3.447678 c -0.338283,0 -0.611755,-0.273735 -0.611755,-0.612015 0,-0.338289 0.273472,-0.612015 0.611755,-0.612015 h 3.392483 c 0.338283,0 0.611755,0.273726 0.611755,0.612015 0,0.33828 -0.273472,0.612015 -0.611755,0.612015 z m 0,3.447669 c -0.338283,0 -0.611755,-0.273725 -0.611755,-0.612015 0,-0.338279 0.273472,-0.612015 0.611755,-0.612015 h 3.392483 c 0.338283,0 0.611755,0.273736 0.611755,0.612015 0,0.33829 -0.273472,0.612015 -0.611755,0.612015 z m -1.722623,0.729079 c 1.648254,1.153961 2.72549,3.068507 2.72549,5.232668 0,3.526776 -2.859841,6.386629 -6.386679,6.386629 -3.526811,0 -6.386668,-2.859853 -6.386668,-6.386629 0,-2.212112 1.125226,-4.162632 2.835858,-5.307037 V 24.000249 c 0,-0.993247 0.405512,-1.892934 1.058043,-2.547902 0.652555,-0.65247 1.554684,-1.058071 2.547961,-1.058071 0.99326,0 1.892971,0.405432 2.547957,1.058071 0.652553,0.652469 1.058038,1.554655 1.058038,2.547902 z"
         id="path826"
         style="clip-rule:evenodd;fill:#f34135;fill-opacity:1;fill-rule:evenodd;stroke-width:0.23992" />
    </g>
  </g>
</svg>
