<?xml version="1.0" encoding="UTF-8" standalone="no"?>
<!-- Created with Inkscape (http://www.inkscape.org/) -->

<svg
   width="210mm"
   height="297mm"
   viewBox="0 0 210 297"
   version="1.1"
   id="svg65130"
   inkscape:version="1.1.2 (0a00cf5339, 2022-02-04)"
   sodipodi:docname="temp_connected.svg"
   xmlns:inkscape="http://www.inkscape.org/namespaces/inkscape"
   xmlns:sodipodi="http://sodipodi.sourceforge.net/DTD/sodipodi-0.dtd"
   xmlns="http://www.w3.org/2000/svg"
   xmlns:svg="http://www.w3.org/2000/svg">
  <sodipodi:namedview
     id="namedview65132"
     pagecolor="#ffffff"
     bordercolor="#666666"
     borderopacity="1.0"
     inkscape:pageshadow="2"
     inkscape:pageopacity="0.0"
     inkscape:pagecheckerboard="0"
     inkscape:document-units="mm"
     showgrid="false"
     inkscape:zoom="0.34832351"
     inkscape:cx="499.53561"
     inkscape:cy="578.48521"
     inkscape:window-width="1846"
     inkscape:window-height="1016"
     inkscape:window-x="0"
     inkscape:window-y="0"
     inkscape:window-maximized="1"
     inkscape:current-layer="layer1" />
  <defs
     id="defs65127" />
  <g
     inkscape:label="Warstwa 1"
     inkscape:groupmode="layer"
     id="layer1">
    <circle
       style="fill:#f9d4d3;fill-opacity:1;stroke-width:4.15389"
       id="path878"
       cx="106.45398"
       cy="95.45771"
       r="85.257126" />
    <path
       class="st0"
       d="M 97.159623,87.418006 H 108.7333 V 68.438893 c 0,-1.589513 -0.6521,-3.038872 -1.70001,-4.086781 -1.0479,-1.048535 -2.49754,-1.700214 -4.08688,-1.700214 -1.5893,0 -3.038977,0.651679 -4.086886,1.700214 -1.047908,1.048535 -1.700005,2.497477 -1.700005,4.086781 z M 115.8766,67.798701 c -0.82086,0 -1.48445,-0.664211 -1.48445,-1.485076 0,-0.820865 0.66359,-1.485077 1.48445,-1.485077 h 8.23201 c 0.82086,0 1.48445,0.664212 1.48445,1.485077 0,0.820865 -0.66359,1.485076 -1.48445,1.485076 z m 0,8.365724 c -0.82086,0 -1.48445,-0.664212 -1.48445,-1.485077 0,-0.820865 0.66359,-1.485077 1.48445,-1.485077 h 8.23201 c 0.82086,0 1.48445,0.664212 1.48445,1.485077 0,0.820865 -0.66359,1.485077 -1.48445,1.485077 z m 0,8.365932 c -0.82086,0 -1.48445,-0.664212 -1.48445,-1.485077 0,-0.820865 0.66359,-1.485077 1.48445,-1.485077 h 8.23201 c 0.82086,0 1.48445,0.664212 1.48445,1.485077 0,0.820865 -0.66359,1.485077 -1.48445,1.485077 z m 0,8.365932 c -0.82086,0 -1.48445,-0.664211 -1.48445,-1.485077 0,-0.820865 0.66359,-1.485076 1.48445,-1.485076 h 8.23201 c 0.82086,0 1.48445,0.664211 1.48445,1.485076 0,0.820866 -0.66359,1.485077 -1.48445,1.485077 z m 0,8.365931 c -0.82086,0 -1.48445,-0.66421 -1.48445,-1.485076 0,-0.820865 0.66359,-1.485076 1.48445,-1.485076 h 8.23201 c 0.82086,0 1.48445,0.664211 1.48445,1.485076 0,0.820866 -0.66359,1.485076 -1.48445,1.485076 z m -4.18002,1.76914 c 3.99956,2.80014 6.61352,7.44586 6.61352,12.6973 0,8.55789 -6.93953,15.49744 -15.49756,15.49744 -8.557965,0 -15.497534,-6.93955 -15.497534,-15.49744 0,-5.36779 2.73041,-10.10081 6.881335,-12.87776 V 68.438266 c 0,-2.410169 0.983994,-4.593294 2.567387,-6.182598 1.583455,-1.583246 3.772512,-2.567449 6.182742,-2.567449 2.41019,0 4.59338,0.983785 6.18273,2.567449 1.58345,1.583247 2.56738,3.772429 2.56738,6.182598 z"
       id="path826"
       style="clip-rule:evenodd;fill:#f34135;fill-opacity:1;fill-rule:evenodd;stroke-width:0.582177" />
  </g>
</svg>
