<?xml version="1.0" encoding="UTF-8" standalone="no"?>
<svg
   viewBox="0 0 100 100"
   version="1.1"
   id="svg23"
   sodipodi:docname="udp_port.svg"
   width="100"
   height="100"
   inkscape:version="1.1.2 (0a00cf5339, 2022-02-04)"
   xmlns:inkscape="http://www.inkscape.org/namespaces/inkscape"
   xmlns:sodipodi="http://sodipodi.sourceforge.net/DTD/sodipodi-0.dtd"
   xmlns="http://www.w3.org/2000/svg"
   xmlns:svg="http://www.w3.org/2000/svg">
  <defs
     id="defs27" />
  <sodipodi:namedview
     id="namedview25"
     pagecolor="#ffffff"
     bordercolor="#666666"
     borderopacity="1.0"
     inkscape:pageshadow="2"
     inkscape:pageopacity="0.0"
     inkscape:pagecheckerboard="0"
     showgrid="false"
     inkscape:zoom="3.0546875"
     inkscape:cx="92.971867"
     inkscape:cy="32.245524"
     inkscape:window-width="1846"
     inkscape:window-height="1016"
     inkscape:window-x="0"
     inkscape:window-y="0"
     inkscape:window-maximized="1"
     inkscape:current-layer="svg23" />
  <g
     id="Outline"
     style="fill:#618ba8;fill-opacity:1;stroke:#618ba8;stroke-width:0.8;stroke-miterlimit:4;stroke-dasharray:none;stroke-opacity:1"
     transform="matrix(1.6430614,0,0,1.6430614,-2.5735948,-2.6288989)">
    <path
       d="m 35,45 a 1,1 0 0 0 1,1 h 10 a 1,1 0 0 0 0,-2 H 36 a 1,1 0 0 0 -1,1 z"
       id="path2"
       style="fill:#618ba8;fill-opacity:1;stroke:#618ba8;stroke-width:0.8;stroke-miterlimit:4;stroke-dasharray:none;stroke-opacity:1" />
    <path
       d="M 59,16 H 15 V 3 A 1,1 0 0 0 13,3 V 16 H 5 A 3.041,3.041 0 0 0 2,19.074 V 42.926 A 3.041,3.041 0 0 0 5,46 h 23 a 1,1 0 0 0 0,-2 H 5 A 1.041,1.041 0 0 1 4,42.926 V 19.074 A 1.041,1.041 0 0 1 5,18 h 8 v 7 a 1,1 0 0 0 2,0 v -7 h 44 a 1.041,1.041 0 0 1 1,1.074 V 42.926 A 1.041,1.041 0 0 1 59,44 h -5 a 1,1 0 0 0 0,2 h 5 a 3.041,3.041 0 0 0 3,-3.074 V 19.074 A 3.041,3.041 0 0 0 59,16 Z"
       id="path4"
       style="fill:#618ba8;fill-opacity:1;stroke:#618ba8;stroke-width:0.8;stroke-miterlimit:4;stroke-dasharray:none;stroke-opacity:1" />
    <path
       d="m 42,39 a 1,1 0 0 0 1,1 h 1 v 1 a 1,1 0 0 0 1,1 h 1 a 1,1 0 0 0 0,-2 v -1 a 1,1 0 0 0 -1,-1 h -1 v -4 h 12 v 4 h -1 a 1,1 0 0 0 -1,1 v 1 a 1,1 0 0 0 0,2 h 1 a 1,1 0 0 0 1,-1 v -1 h 1 a 1,1 0 0 0 1,-1 V 33 A 1,1 0 0 0 57,32 H 43 a 1,1 0 0 0 -1,1 z"
       id="path6"
       style="fill:#618ba8;fill-opacity:1;stroke:#618ba8;stroke-width:0.8;stroke-miterlimit:4;stroke-dasharray:none;stroke-opacity:1" />
    <path
       d="m 49,37.062 v 24 a 1,1 0 0 0 2,0 v -24 a 1,1 0 0 0 -2,0 z"
       id="path8"
       style="fill:#618ba8;fill-opacity:1;stroke:#618ba8;stroke-width:0.8;stroke-miterlimit:4;stroke-dasharray:none;stroke-opacity:1" />
    <path
       d="m 27,42 h 1 a 1,1 0 0 0 0,-2 v -1 a 1,1 0 0 0 -1,-1 h -1 v -4 h 12 v 4 h -1 a 1,1 0 0 0 -1,1 v 1 a 1,1 0 0 0 0,2 h 1 a 1,1 0 0 0 1,-1 v -1 h 1 a 1,1 0 0 0 1,-1 V 33 A 1,1 0 0 0 39,32 H 25 a 1,1 0 0 0 -1,1 v 6 a 1,1 0 0 0 1,1 h 1 v 1 a 1,1 0 0 0 1,1 z"
       id="path10"
       style="fill:#618ba8;fill-opacity:1;stroke:#618ba8;stroke-width:0.8;stroke-miterlimit:4;stroke-dasharray:none;stroke-opacity:1" />
    <path
       d="m 31,37.062 v 24 a 1,1 0 0 0 2,0 v -24 a 1,1 0 0 0 -2,0 z"
       id="path12"
       style="fill:#618ba8;fill-opacity:1;stroke:#618ba8;stroke-width:0.8;stroke-miterlimit:4;stroke-dasharray:none;stroke-opacity:1" />
    <path
       d="m 9,42 h 10 a 1,1 0 0 0 1,-1 v -1 h 1 a 1,1 0 0 0 1,-1 V 33 A 1,1 0 0 0 21,32 H 7 a 1,1 0 0 0 -1,1 v 6 a 1,1 0 0 0 1,1 h 1 v 1 a 1,1 0 0 0 1,1 z M 8,34 h 12 v 4 h -1 a 1,1 0 0 0 -1,1 v 1 H 10 V 39 A 1,1 0 0 0 9,38 H 8 Z"
       id="path14"
       style="fill:#618ba8;fill-opacity:1;stroke:#618ba8;stroke-width:0.8;stroke-miterlimit:4;stroke-dasharray:none;stroke-opacity:1" />
    <path
       d="m 22,21 a 1,1 0 0 0 -1,-1 h -3 a 1,1 0 0 0 0,2 h 2 v 4 h -1 a 1,1 0 0 0 -1,1 v 1 H 10 V 27 A 1,1 0 0 0 9,26 H 8 v -4 h 2 a 1,1 0 0 0 0,-2 H 7 a 1,1 0 0 0 -1,1 v 6 a 1,1 0 0 0 1,1 h 1 v 1 a 1,1 0 0 0 1,1 h 10 a 1,1 0 0 0 1,-1 v -1 h 1 a 1,1 0 0 0 1,-1 z"
       id="path16"
       style="fill:#618ba8;fill-opacity:1;stroke:#618ba8;stroke-width:0.8;stroke-miterlimit:4;stroke-dasharray:none;stroke-opacity:1" />
    <path
       d="M 39,20 H 25 a 1,1 0 0 0 -1,1 v 6 a 1,1 0 0 0 1,1 h 1 v 1 a 1,1 0 0 0 1,1 h 10 a 1,1 0 0 0 1,-1 v -1 h 1 a 1,1 0 0 0 1,-1 v -6 a 1,1 0 0 0 -1,-1 z m -1,6 h -1 a 1,1 0 0 0 -1,1 v 1 h -8 v -1 a 1,1 0 0 0 -1,-1 h -1 v -4 h 12 z"
       id="path18"
       style="fill:#618ba8;fill-opacity:1;stroke:#618ba8;stroke-width:0.8;stroke-miterlimit:4;stroke-dasharray:none;stroke-opacity:1" />
    <path
       d="m 45,30 h 10 a 1,1 0 0 0 1,-1 v -1 h 1 a 1,1 0 0 0 1,-1 V 21 A 1,1 0 0 0 57,20 H 43 a 1,1 0 0 0 -1,1 v 6 a 1,1 0 0 0 1,1 h 1 v 1 a 1,1 0 0 0 1,1 z m -1,-8 h 12 v 4 h -1 a 1,1 0 0 0 -1,1 v 1 h -8 v -1 a 1,1 0 0 0 -1,-1 h -1 z"
       id="path20"
       style="fill:#618ba8;fill-opacity:1;stroke:#618ba8;stroke-width:0.8;stroke-miterlimit:4;stroke-dasharray:none;stroke-opacity:1" />
  </g>
</svg>
