<?xml version="1.0" encoding="UTF-8" standalone="no"?>
<svg
   viewBox="0 0 100 100"
   version="1.1"
   id="svg12"
   sodipodi:docname="wifi.svg"
   width="100"
   height="100"
   inkscape:version="1.1.2 (0a00cf5339, 2022-02-04)"
   xmlns:inkscape="http://www.inkscape.org/namespaces/inkscape"
   xmlns:sodipodi="http://sodipodi.sourceforge.net/DTD/sodipodi-0.dtd"
   xmlns="http://www.w3.org/2000/svg"
   xmlns:svg="http://www.w3.org/2000/svg">
  <defs
     id="defs16" />
  <sodipodi:namedview
     id="namedview14"
     pagecolor="#ffffff"
     bordercolor="#666666"
     borderopacity="1.0"
     inkscape:pageshadow="2"
     inkscape:pageopacity="0.0"
     inkscape:pagecheckerboard="0"
     showgrid="false"
     inkscape:zoom="4.0729167"
     inkscape:cx="14.976982"
     inkscape:cy="54.629156"
     inkscape:window-width="1846"
     inkscape:window-height="1016"
     inkscape:window-x="0"
     inkscape:window-y="0"
     inkscape:window-maximized="1"
     inkscape:current-layer="svg12" />
  <title
     id="title2" />
  <g
     id="g10"
     transform="matrix(1.1362695,0,0,1.1362695,-4.5415025,-4.5407159)"
     style="fill:#004473;fill-opacity:0.61960787">
    <path
       d="M 48,60 A 12,12 0 1 0 60,72 12.0081,12.0081 0 0 0 48,60 Z"
       id="path4"
       style="fill:#004473;fill-opacity:0.61960787" />
    <path
       d="m 22.6055,46.6289 a 5.9994348,5.9994348 0 1 0 8.5078,8.4611 24.2258,24.2258 0 0 1 33.7734,0 5.9512,5.9512 0 0 0 4.2539,1.77 6,6 0 0 0 4.2539,-10.23 C 59.7773,32.918 36.2227,32.918 22.6055,46.6289 Z"
       id="path6"
       style="fill:#004473;fill-opacity:0.61960787" />
    <path
       d="m 90.27,29.7773 a 59.1412,59.1412 0 0 0 -84.539,0 5.9994329,5.9994329 0 1 0 8.5312,8.4375 c 18.1172,-18.3281 49.3594,-18.3281 67.4766,0 A 5.9994329,5.9994329 0 1 0 90.27,29.7773 Z"
       id="path8"
       style="fill:#004473;fill-opacity:0.61960787" />
  </g>
</svg>
